mtllib weatherford.mtl
# vertices
v -9440 32 -3488
v -9440 96 -3488
v -9440 96 -4000
v -9440 32 -4000
v -5344 352 -4000
v -5344 352 -3488
v -5344 224 -3488
v -5344 224 -4000
v -5344 224 -3488
v -5344 352 -3488
v -5344 352 -4000
v -5344 224 -4000
v -2208 736 -4000
v -2208 736 -3488
v -2208 608 -3488
v -2208 608 -4000
v -2208 608 -3488
v -2208 736 -3488
v -2208 736 -4000
v -2208 608 -4000
v 3424 1952 -4000
v 3424 1952 -3488
v 3424 1888 -3488
v 3424 1888 -4000
v 3424 1888 -3488
v 3424 1952 -3488
v 3424 1952 -4000
v 3424 1888 -4000
v 10208 3936 -4000
v 10208 3936 -3488
v 10208 3808 -3488
v 10208 3808 -4000
v -3680 608 -928
v -3680 736 -928
v -3680 672 -1312
v -3680 544 -1312
v -1824 864 -1312
v -1824 864 -928
v -1824 800 -928
v -1824 800 -1312
v -3744 672 1952
v -3744 864 1952
v -3744 800 480
v -3744 608 480
v -1760 864 480
v -1760 864 1952
v -1760 800 1952
v -1760 736 480
v -4896 288 -3488
v -4896 480 -800
v -4896 544 -800
v -4896 400 -3488
v -4512 448 -3488
v -4512 544 -800
v -4512 480 -800
v -4512 352 -3488
v -4896 480 -800
v -4896 608 1120
v -4896 672 1120
v -4896 544 -800
v -4512 672 1120
v -4512 608 1120
v -4512 480 -800
v -4512 544 -800
v -4512 608 672
v -4512 608 1120
v -4512 672 1120
v -4512 640 672
v -3744 832 1376
v -3744 736 1376
v -3744 816 928
v -3744 736 928
v -1056 992 -2144
v -864 864 -736
v -864 928 -736
v -1056 1056 -2144
v -608 928 -736
v -608 864 -736
v -800 1056 -2144
v -800 992 -2144
v -1824 800 -928
v -1824 864 -928
v -1824 864 -1312
v -1824 800 -1312
v -992 928 -1632
v -992 1008 -1632
v -864 944 -928
v -864 864 -928
v -4512 416 -2080
v -4512 480 -1568
v -4512 512 -1568
v -4512 496 -2080
v -3680 544 -1312
v -3680 672 -1312
v -2912 752 -1312
v -2912 672 -1312
v -4512 568 -416
v -4512 544 -864
v -4512 480 -864
v -4512 480 -416
v -3680 544 -1312
v -3680 672 -1312
v -3680 736 -928
v -3680 608 -928
v -864 736 -736
v -864 736 1120
v -864 928 1120
v -864 928 -736
v -224 928 1120
v -224 736 1120
v -224 736 -736
v -224 928 -736
v -2240 736 -800
v -2240 736 -416
v -2240 928 -416
v -2240 928 -800
v -864 928 -416
v -864 736 -416
v -864 736 -800
v -864 928 -800
v -1760 736 -416
v -1760 736 96
v -1760 928 96
v -1760 928 -416
v -864 928 96
v -864 736 96
v -864 736 -416
v -864 928 -416
v -1760 736 96
v -1760 736 1184
v -1760 928 1184
v -1760 928 96
v -864 928 1184
v -864 736 1184
v -864 736 96
v -864 928 96
v -1760 672 1184
v -1760 672 2016
v -1760 864 2016
v -1760 864 1184
v -864 864 2016
v -864 672 2016
v -864 672 1184
v -864 864 1184
v -3232 736 -416
v -3232 736 -96
v -3232 928 -96
v -3232 928 -416
v -1760 928 -96
v -1760 736 -96
v -1760 736 -416
v -1760 928 -416
v -2592 736 2336
v -2592 736 3232
v -2592 928 3232
v -2592 928 2272
v -1760 928 3232
v -1760 736 3232
v -1760 736 2336
v -1760 928 2272
v -3744 672 2336
v -3744 672 3232
v -3744 864 3232
v -3744 864 2272
v -2912 864 3232
v -2912 672 3232
v -2912 672 2336
v -2912 864 2272
v -3744 672 3232
v -3744 672 3872
v -3744 864 3872
v -3744 864 3232
v -2912 864 3872
v -2912 672 3872
v -2912 672 3232
v -2912 864 3232
v -2912 736 2336
v -2912 736 4832
v -2912 800 4832
v -2912 800 2272
v -2592 864 2272
v -2592 864 4832
v -2592 736 4832
v -2592 736 2336
v -2592 800 4832
v -2592 864 4832
v -2592 864 3232
v -2592 800 3232
v -224 1056 4832
v -224 1016 3232
v -224 928 4832
v -224 928 3232
v -1760 800 3232
v -1760 920 3232
v -1760 800 2208
v -1760 672 2208
v -224 992 2208
v -224 1016 3232
v -224 928 3232
v -224 928 2208
v -1760 672 2080
v -1760 800 2080
v -1760 800 2016
v -1760 672 2016
v -224 992 2016
v -224 992 2080
v -224 928 2080
v -224 928 2016
v -1760 608 2208
v -1760 736 2208
v -1760 736 2080
v -1760 608 2080
v -224 992 2080
v -224 992 2208
v -224 864 2208
v -224 864 2080
v -3040 544 2208
v -3040 672 2208
v -3040 672 2080
v -3040 544 2080
v -1760 736 2080
v -1760 736 2208
v -1760 608 2208
v -1760 608 2080
v -4512 480 2208
v -4512 608 2208
v -4512 608 2080
v -4512 480 2080
v -3040 672 2080
v -3040 672 2208
v -3040 544 2208
v -3040 544 2080
v -3040 608 2080
v -3040 736 2080
v -3040 800 1952
v -3040 608 1952
v -1760 800 2080
v -1760 672 2080
v -1760 800 1952
v -1760 672 1952
v -4512 480 2080
v -4512 608 2080
v -4512 608 1952
v -4512 480 1952
v -3040 800 1952
v -3040 736 2080
v -3040 608 2080
v -3040 608 1952
v -4512 480 2336
v -4512 608 2336
v -4512 608 2208
v -4512 480 2208
v -3040 736 2208
v -3040 736 2336
v -3040 608 2336
v -3040 608 2208
v -3040 608 2336
v -3040 736 2336
v -3040 736 2208
v -3040 608 2208
v -1760 800 2208
v -1760 800 2336
v -1760 672 2336
v -1760 672 2208
v -864 864 1120
v -864 864 2016
v -864 928 2016
v -864 928 1120
v -224 992 2016
v -224 960 1120
v -224 864 2016
v -224 864 1120
v -864 928 -3488
v -1056 992 -2656
v -1056 1056 -2656
v -864 1024 -3488
v -608 1080 -3488
v -800 1056 -2656
v -800 992 -2656
v -608 992 -3488
v -1056 992 -2656
v -1056 992 -2144
v -1056 1056 -2144
v -1056 1056 -2656
v -800 1056 -2144
v -800 992 -2144
v -800 992 -2656
v -800 1056 -2656
v -224 736 -736
v -224 736 -224
v -224 928 -224
v -224 928 -736
v 96 928 -224
v 96 736 -224
v 96 736 -736
v 96 928 -736
v -224 864 4832
v -224 1056 4832
v -224 928 -224
v -224 864 -224
v 736 1152 -224
v 736 1056 4832
v 736 928 4832
v 736 928 -224
v -800 864 -2144
v -608 864 -736
v -608 928 -736
v -800 1056 -2144
v 96 1248 -2144
v 96 928 -736
v 96 864 -736
v 96 928 -2144
v 96 864 -736
v 96 864 -224
v 96 984 -224
v 96 928 -736
v 736 1184 -736
v 736 1152 -224
v 736 928 -224
v 736 864 -736
v 96 864 -2144
v 96 864 -736
v 96 928 -736
v 96 1248 -2144
v 736 1184 -736
v 736 928 -736
v 736 1248 -2144
v 736 864 -2144
v -2240 672 -800
v -2240 864 -800
v -2240 832 -928
v -2240 672 -928
v -864 928 -928
v -864 928 -800
v -864 736 -800
v -864 736 -928
v -800 864 -2656
v -800 864 -2144
v -800 1056 -2144
v -800 1056 -2656
v 96 1248 -2656
v 96 1248 -2144
v 96 928 -2144
v 96 864 -2656
v -608 928 -3488
v -800 928 -2656
v -800 1056 -2656
v -608 1056 -3488
v 96 1248 -3488
v 96 1248 -2656
v 96 992 -2656
v 96 928 -3488
v 736 864 -2144
v 736 1248 -2144
v 736 1376 -3488
v 736 864 -3488
v 2656 1696 -2144
v 2656 1760 -3488
v 2656 1184 -2144
v 2656 1120 -3488
v 736 800 -736
v 736 1184 -736
v 736 1248 -2144
v 736 800 -2144
v 2656 1696 -2144
v 2656 1440 -736
v 2656 1120 -736
v 2656 1056 -2144
v 736 736 672
v 736 1128 672
v 736 1184 -736
v 736 736 -736
v 2656 1440 -736
v 2656 1376 672
v 2656 1056 672
v 2656 992 -736
v 736 672 2080
v 736 1104 2080
v 736 1128 672
v 736 672 672
v 2656 1504 2080
v 2656 1376 672
v 2656 992 2080
v 2656 928 672
v 736 672 3488
v 736 1080 3488
v 736 1104 2080
v 736 672 2080
v 2656 1696 3488
v 2656 1504 2080
v 2656 992 3488
v 2656 928 2080
v 736 672 4832
v 736 1056 4832
v 736 1080 3488
v 736 672 3488
v 2656 1760 4832
v 2656 1696 3488
v 2656 992 4832
v 2656 928 3488
v -3744 672 3872
v -3744 672 4832
v -3744 736 4832
v -3744 800 3872
v -2912 800 4832
v -2912 672 4832
v -2912 672 3872
v -2912 800 3872
v -4512 544 3872
v -4512 544 4832
v -4512 608 4832
v -4512 608 3872
v -3744 800 3872
v -3744 736 4832
v -3744 608 4832
v -3744 544 3872
v -4512 480 1120
v -4512 480 1952
v -4512 608 1952
v -4512 608 1120
v -3744 800 1376
v -3744 736 1952
v -3744 608 1952
v -3744 544 1376
v -5280 480 1120
v -5280 480 4832
v -5280 608 4832
v -5280 608 1120
v -4512 608 4832
v -4512 480 4832
v -4512 480 1120
v -4512 608 1120
v -5280 224 -3488
v -5280 480 1120
v -5280 608 1120
v -5280 352 -3488
v -4896 608 1120
v -4896 480 1120
v -4896 224 -3488
v -4896 352 -3488
v -6048 288 4832
v -6048 416 4832
v -6048 416 1120
v -6048 288 1120
v -5280 608 1120
v -5280 608 4832
v -5280 480 4832
v -5280 480 1120
v -6048 160 -3488
v -6048 288 1120
v -6048 416 1120
v -6048 288 -3488
v -5280 608 1120
v -5280 480 1120
v -5280 160 -3488
v -5280 288 -3488
v -3680 544 -416
v -3680 672 -416
v -3680 736 -928
v -3680 544 -928
v -3040 784 -416
v -3040 784 -928
v -3040 608 -416
v -3040 608 -928
v -3744 480 480
v -3744 800 480
v -3680 672 -416
v -3680 480 -416
v -3232 736 -416
v -3232 800 480
v -3232 544 480
v -3232 544 -416
v -3680 544 -928
v -4512 480 -416
v -4512 552 -416
v -3680 736 -928
v -3680 672 -416
v -3680 544 -416
v -4512 480 672
v -4512 624 672
v -4512 624 480
v -4512 480 480
v -3744 800 928
v -3744 544 928
v -3744 800 480
v -3744 544 480
v -4512 480 480
v -4512 624 480
v -4512 552 -416
v -4512 480 -416
v -3744 800 480
v -3680 672 -416
v -3744 544 480
v -3680 544 -416
v -4512 528 -864
v -4512 512 -1568
v -4512 448 -1568
v -4512 480 -864
v -3680 656 -1312
v -3680 512 -1312
v -4512 352 -3488
v -4512 352 -2080
v -4512 480 -2080
v -4512 416 -3488
v -2912 720 -1312
v -2912 416 -1312
v -2912 608 -3488
v -2912 352 -3488
v -1952 608 -2656
v -1952 736 -2656
v -1952 736 -3488
v -1952 608 -3488
v -1056 1056 -2656
v -864 992 -3488
v -1056 928 -2656
v -864 864 -3488
v -1952 608 -2144
v -1952 736 -2144
v -1952 736 -2656
v -1952 608 -2656
v -1056 1056 -2656
v -1056 1056 -2144
v -1056 928 -2144
v -1056 864 -2656
v -1824 864 -1312
v -1952 736 -2144
v -1952 608 -2144
v -1824 608 -1312
v -1056 1056 -2144
v -992 992 -1632
v -1056 864 -2144
v -992 800 -1632
v -2912 480 -1312
v -2912 720 -1312
v -2912 672 -2144
v -2912 416 -2144
v -1824 864 -1312
v -1952 736 -2144
v -1824 800 -1312
v -1952 544 -2144
v -2912 480 -3488
v -2912 544 -2144
v -2912 672 -2144
v -2912 608 -3488
v -1952 736 -3488
v -1952 736 -2144
v -1952 608 -2144
v -1952 480 -3488
v -2592 800 1952
v -2592 864 2272
v -2592 928 2272
v -2592 864 1952
v -1760 928 2272
v -1760 864 2272
v -1760 800 1952
v -1760 864 1952
v -928 864 1184
v -928 864 1952
v -928 928 1952
v -928 928 1184
v -864 928 1952
v -864 864 1952
v -864 864 1184
v -864 928 1184
v -1760 864 1952
v -1760 864 2016
v -1760 928 2016
v -1760 928 1952
v -864 928 2016
v -864 864 2016
v -864 864 1952
v -864 928 1952
v -2912 800 1952
v -2912 800 2336
v -2912 864 2336
v -2912 864 1952
v -2592 928 2336
v -2592 864 2336
v -2592 800 1952
v -2592 864 1952
v -3232 736 -96
v -3232 736 480
v -3232 928 480
v -3232 928 -96
v -1760 928 480
v -1760 736 480
v -1760 736 -96
v -1760 928 -96
v -4512 544 2336
v -4512 544 3872
v -4512 608 3872
v -4512 608 2336
v -3744 800 3872
v -3744 672 2336
v -3744 608 3872
v -3744 544 2336
v -2720 672 -864
v -2720 672 -416
v -2720 864 -416
v -2720 864 -864
v -2240 864 -416
v -2240 672 -416
v -2240 672 -864
v -2240 864 -864
v -2624 720 -768
v -2624 720 -416
v -2624 912 -416
v -2624 912 -768
v -2240 912 -416
v -2240 720 -416
v -2240 720 -768
v -2240 912 -768
v -2592 736 -736
v -2592 736 -416
v -2592 928 -416
v -2592 928 -736
v -2240 928 -416
v -2240 736 -416
v -2240 736 -736
v -2240 928 -736
v -2784 640 -912
v -2784 640 -416
v -2784 832 -416
v -2784 832 -912
v -2240 832 -416
v -2240 640 -416
v -2240 640 -912
v -2240 832 -912
v -3040 800 -544
v -3040 800 -416
v -3040 928 -416
v -3040 928 -544
v -2976 928 -416
v -2976 800 -416
v -2976 800 -544
v -2976 928 -544
v -2848 800 -544
v -2848 800 -416
v -2848 928 -416
v -2848 928 -544
v -2784 928 -416
v -2784 800 -416
v -2784 800 -544
v -2784 928 -544
v -2976 800 -544
v -2976 800 -480
v -2976 928 -480
v -2976 928 -544
v -2848 928 -480
v -2848 800 -480
v -2848 800 -544
v -2848 928 -544
v -2656 704 -800
v -2656 704 -416
v -2656 896 -416
v -2656 896 -800
v -2240 896 -416
v -2240 704 -416
v -2240 704 -800
v -2240 896 -800
v -2688 688 -832
v -2688 688 -416
v -2688 880 -416
v -2688 880 -832
v -2240 880 -416
v -2240 688 -416
v -2240 688 -832
v -2240 880 -832
v -2752 656 -896
v -2752 656 -416
v -2752 848 -416
v -2752 848 -896
v -2240 848 -416
v -2240 656 -416
v -2240 656 -896
v -2240 848 -896
v -2648 736 480
v -2648 736 608
v -2648 928 608
v -2648 928 480
v -2016 928 608
v -2016 736 608
v -2016 736 480
v -2016 928 480
v -2680 720 480
v -2680 720 640
v -2680 912 640
v -2680 912 480
v -2016 912 640
v -2016 720 640
v -2016 720 480
v -2016 912 480
v -2712 704 480
v -2712 704 672
v -2712 896 672
v -2712 896 480
v -2016 896 672
v -2016 704 672
v -2016 704 480
v -2016 896 480
v -2744 688 480
v -2744 688 704
v -2744 880 704
v -2744 880 480
v -2016 880 704
v -2016 688 704
v -2016 688 480
v -2016 880 480
v -2776 672 480
v -2776 672 736
v -2776 864 736
v -2776 864 480
v -2016 864 736
v -2016 672 736
v -2016 672 480
v -2016 864 480
v -2808 656 480
v -2808 656 768
v -2808 848 768
v -2808 848 480
v -2016 848 768
v -2016 656 768
v -2016 656 480
v -2016 848 480
v -1920 688 896
v -1920 688 1280
v -1920 880 1280
v -1920 880 896
v -1760 880 1280
v -1760 688 1280
v -1760 688 896
v -1760 880 896
v -1888 704 928
v -1888 704 1248
v -1888 896 1248
v -1888 896 928
v -1760 896 1248
v -1760 704 1248
v -1760 704 928
v -1760 896 928
v -1856 720 960
v -1856 720 1216
v -1856 912 1216
v -1856 912 960
v -1760 912 1216
v -1760 720 1216
v -1760 720 960
v -1760 912 960
v -1824 736 992
v -1824 736 1184
v -1824 928 1184
v -1824 928 992
v -1760 928 1184
v -1760 736 1184
v -1760 736 992
v -1760 928 992
v -1584 688 1184
v -1584 688 1344
v -1584 880 1344
v -1584 880 1184
v -1200 880 1344
v -1200 688 1344
v -1200 688 1184
v -1200 880 1184
v -1552 704 1184
v -1552 704 1312
v -1552 896 1312
v -1552 896 1184
v -1232 896 1312
v -1232 704 1312
v -1232 704 1184
v -1232 896 1184
v -1520 720 1184
v -1520 720 1280
v -1520 912 1280
v -1520 912 1184
v -1264 912 1280
v -1264 720 1280
v -1264 720 1184
v -1264 912 1184
v -1488 736 1184
v -1488 736 1248
v -1488 928 1248
v -1488 928 1184
v -1296 928 1248
v -1296 736 1248
v -1296 736 1184
v -1296 928 1184
v -3744 800 1952
v -3744 800 2272
v -3744 864 2272
v -3744 864 1952
v -2912 864 2272
v -2912 800 2272
v -2912 800 1952
v -2912 864 1952
v -3040 640 -928
v -3040 640 -416
v -3040 800 -416
v -3040 792 -928
v -2800 800 -928
v -2800 800 -416
v -2800 640 -416
v -2800 640 -928
v -2800 640 -928
v -2800 640 -544
v -2800 816 -544
v -2800 816 -928
v -2240 832 -928
v -2240 832 -544
v -2240 640 -544
v -2240 640 -928
v 96 1120 -2656
v 96 1120 -2144
v 96 1248 -2144
v 96 1248 -2656
v 736 1296 -2656
v 736 1248 -2144
v 736 1184 -2144
v 736 1120 -2656
v 96 1120 -3488
v 96 1120 -2656
v 96 1248 -2656
v 96 1248 -3488
v 736 1376 -3488
v 736 1296 -2656
v 736 1184 -2656
v 736 1120 -3488

# texture coordinates
vt 19.931429 0.18285714
vt 19.931429 0.5485714
vt 22.857143 0.5485714
vt 22.857143 0.18285714
vt -30.537144 22.857143
vt -53.942856 22.857143
vt -53.942856 19.931429
vt -30.537144 19.931429
vt -30.537144 2.0114286
vt -53.942856 0.5485714
vt -53.942856 0.18285714
vt -30.537144 1.28
vt 22.857143 1.28
vt 22.857143 2.0114286
vt 19.931429 2.0114286
vt 19.931429 1.28
vt -12.617143 22.857143
vt -12.617143 19.931429
vt -12.617143 4.205714
vt -12.617143 3.4742856
vt 22.857143 3.4742856
vt 22.857143 4.205714
vt 19.931429 4.205714
vt 19.931429 3.4742856
vt 19.565714 22.857143
vt 19.565714 19.931429
vt 19.565714 11.154285
vt 19.565714 10.788571
vt 22.857143 10.788571
vt 22.857143 11.154285
vt 19.931429 11.154285
vt 19.931429 10.788571
vt 58.33143 22.857143
vt 58.33143 19.931429
vt 58.33143 22.491428
vt 58.33143 21.76
vt 22.857143 21.76
vt 22.857143 22.491428
vt 19.931429 22.491428
vt 19.931429 21.76
vt 5.302857 3.4742856
vt 5.302857 4.205714
vt 7.497143 3.84
vt 7.497143 3.1085715
vt -21.028572 7.497143
vt -21.028572 5.302857
vt -10.422857 7.497143
vt -10.422857 5.302857
vt -10.422857 4.937143
vt -21.028572 4.205714
vt -21.028572 3.4742856
vt -10.422857 4.571429
vt -21.028572 3.1085715
vt -21.028572 3.84
vt 7.497143 4.571429
vt 7.497143 4.937143
vt 5.302857 4.937143
vt 5.302857 4.571429
vt -8.812641 3.03386
vt -8.812641 3.9006772
vt -2.167043 3.6117382
vt -2.167043 2.744921
vt -16.902935 -2.167043
vt -16.902935 -8.812641
vt -7.945824 -2.167043
vt -7.945824 3.9006772
vt -16.902935 3.9006772
vt -16.902935 3.03386
vt -7.945824 3.6117382
vt -7.945824 -8.812641
vt -7.945824 3.3227992
vt -16.902935 2.744921
vt -16.902935 3.6117382
vt -8.812641 3.6117382
vt -2.167043 3.3227992
vt -2.167043 3.9006772
vt 19.931429 1.6457143
vt 4.571429 2.7428572
vt 4.571429 3.1085715
vt 19.931429 2.2857144
vt -27.977142 19.931429
vt -27.977142 4.571429
vt -25.782858 19.931429
vt -25.782858 3.1085715
vt -27.977142 3.1085715
vt -27.977142 2.7428572
vt -25.782858 2.7428572
vt -25.782858 4.571429
vt -25.782858 2.0114286
vt -27.977142 1.6457143
vt -27.977142 2.2857144
vt -25.782858 2.56
vt 19.931429 2.56
vt -6.4 3.4742856
vt -6.4 3.84
vt -25.782858 3.84
vt -27.977142 3.84
vt -27.977142 3.4742856
vt -25.782858 3.4742856
vt -25.782858 -6.4
vt -27.977142 -6.4
vt -3.84 3.4742856
vt -3.84 3.6571429
vt -21.394285 4.754286
vt -21.394285 4.205714
vt -25.782858 -3.84
vt -21.394285 -5.302857
vt -21.394285 -7.8628573
vt -25.782858 3.6571429
vt -21.394285 4.662857
vt -7.8628573 4.754286
vt -7.8628573 4.205714
vt -5.302857 4.205714
vt -5.302857 4.662857
vt 12.251429 5.6685715
vt 4.205714 4.937143
vt 4.205714 5.302857
vt 12.251429 6.0342855
vt -3.4742856 5.302857
vt -4.937143 5.302857
vt -4.937143 4.937143
vt -3.4742856 4.937143
vt -4.571429 12.251429
vt -6.0342855 12.251429
vt -4.937143 4.205714
vt -3.4742856 4.205714
vt -4.571429 5.6685715
vt -6.0342855 5.6685715
vt -6.0342855 6.0342855
vt -4.571429 6.0342855
vt -5.6685715 5.302857
vt -5.6685715 5.76
vt -5.6685715 9.325714
vt -4.937143 5.3942857
vt 9.325714 5.302857
vt 9.325714 5.76
vt 5.302857 5.3942857
vt 11.885715 2.377143
vt 8.96 2.7428572
vt 8.96 2.9257143
vt 11.885715 2.8342857
vt -25.782858 2.9257143
vt -25.782858 11.885715
vt -25.782858 8.96
vt -16.64 7.497143
vt -16.64 4.297143
vt -16.64 3.84
vt -25.782858 2.377143
vt -25.782858 2.8342857
vt 2.377143 3.2457142
vt 4.937143 3.1085715
vt 4.937143 2.7428572
vt 2.377143 2.7428572
vt -25.782858 4.937143
vt -25.782858 3.2457142
vt 3.3227992 3.3227992
vt -5.056433 3.3227992
vt -5.056433 4.189616
vt 3.3227992 4.189616
vt -1.0112867 4.189616
vt -3.9006772 4.189616
vt -3.9006772 3.3227992
vt -1.0112867 3.3227992
vt -1.0112867 -5.056433
vt -3.9006772 -5.056433
vt 3.3227994 3.3227992
vt 1.8781041 3.3227992
vt 1.8781041 4.189616
vt 3.3227994 4.189616
vt -10.257337 4.189616
vt -10.257337 3.3227992
vt -3.9006772 1.8781041
vt -10.257337 1.8781041
vt -10.257337 3.3227994
vt -3.9006772 3.3227994
vt 1.8781039 3.3227992
vt -0.4334086 3.3227992
vt -0.4334086 4.189616
vt 1.8781039 4.189616
vt -7.945824 4.189616
vt -3.9006772 -0.4334086
vt -7.945824 -0.4334086
vt -7.945824 1.8781039
vt -3.9006772 1.8781039
vt -5.3453727 3.3227992
vt -5.3453727 4.189616
vt -3.9006772 -5.3453727
vt -7.945824 -5.3453727
vt -5.3453727 3.03386
vt -9.10158 3.03386
vt -9.10158 3.9006772
vt -5.3453727 3.9006772
vt -3.9006772 3.9006772
vt -7.945824 3.03386
vt -3.9006772 3.03386
vt -3.9006772 -9.10158
vt -7.945824 -9.10158
vt 0.4334086 3.3227992
vt 0.4334086 4.189616
vt -14.591422 4.189616
vt -14.591422 3.3227992
vt -7.945824 0.4334086
vt -14.591422 0.4334086
vt -14.591422 1.8781039
vt -10.546275 3.3227992
vt -11.702031 4.189616
vt -11.702031 3.3227992
vt -7.945824 -14.591422
vt -11.702031 -14.591422
vt -11.702031 -10.546275
vt -7.945824 -10.546275
vt -7.945824 -10.257337
vt -11.702031 -10.257337
vt -10.546275 3.03386
vt -14.591422 3.03386
vt -14.591422 3.9006772
vt -10.257337 3.9006772
vt -13.146727 3.9006772
vt -13.146727 3.03386
vt -13.146727 -14.591422
vt -16.902935 -14.591422
vt -16.902935 -10.546275
vt -13.146727 -10.546275
vt -13.146727 -10.257337
vt -16.902935 -10.257337
vt -17.480812 3.03386
vt -17.480812 3.9006772
vt -13.146727 -17.480812
vt -16.902935 -17.480812
vt -9.125 2.875
vt -18.875 2.875
vt -18.875 3.125
vt -8.875 3.125
vt -10.125 -8.875
vt -11.375 -8.875
vt -11.375 -18.875
vt -10.125 -18.875
vt -10.125 3.375
vt -11.375 3.125
vt -11.375 2.875
vt -10.125 2.875
vt -11.375 -9.125
vt -10.125 -9.125
vt -8.875 3.375
vt -18.875 3.375
vt -12.625 3.375
vt -12.625 3.125
vt -0.875 -18.875
vt -10.125 -12.625
vt -0.875 -12.625
vt -0.875 4.125
vt -10.125 3.125
vt -0.875 3.625
vt -0.875 3.96875
vt -18.875 3.625
vt -12.625 3.625
vt -12.625 3.96875
vt -18.875 4.125
vt -12.625 3.59375
vt -8.625 3.125
vt -8.625 2.625
vt -6.875 -8.625
vt -6.875 -12.625
vt -0.875 -8.625
vt -6.875 3.59375
vt -6.875 3.125
vt -6.875 2.625
vt -0.875 3.875
vt -8.625 3.625
vt -8.625 3.875
vt -8.125 2.625
vt -8.125 3.125
vt -7.875 3.125
vt -7.875 2.625
vt -0.875 -7.875
vt -6.875 -7.875
vt -6.875 -8.125
vt -0.875 -8.125
vt -7.875 3.625
vt -7.875 3.875
vt -8.125 3.875
vt -8.125 3.625
vt -8.625 2.375
vt -8.625 2.875
vt -8.125 2.875
vt -8.125 2.375
vt -6.875 2.875
vt -6.875 2.375
vt -0.875 3.375
vt -8.125 3.375
vt -8.625 3.375
vt -8.625 2.125
vt -8.125 2.125
vt -11.875 -8.125
vt -11.875 -8.625
vt -11.875 2.625
vt -11.875 2.125
vt -8.625 1.875
vt -8.125 1.875
vt -17.625 -8.125
vt -17.625 -8.625
vt -17.625 2.375
vt -17.625 1.875
vt -7.625 3.125
vt -7.625 2.375
vt -11.875 -7.625
vt -11.875 2.875
vt -11.875 2.375
vt -6.875 -7.625
vt -11.875 3.125
vt -7.625 2.625
vt -7.625 1.875
vt -17.625 -7.625
vt -9.125 1.875
vt -9.125 2.375
vt -17.625 -9.125
vt -11.875 -9.125
vt -6.875 -9.125
vt -9.125 3.125
vt -9.125 2.625
vt -4.375 3.375
vt -7.875 3.375
vt -4.375 3.625
vt -3.375 -4.375
vt -3.375 -7.875
vt -0.875 -4.375
vt -3.375 3.625
vt -3.375 3.375
vt -0.875 3.75
vt -4.375 3.75
vt 19.931429 5.302857
vt 15.177143 5.6685715
vt 15.177143 6.0342855
vt 19.931429 5.8514285
vt -4.937143 19.931429
vt -6.0342855 15.177143
vt -3.4742856 19.931429
vt -4.571429 15.177143
vt -3.4742856 5.6685715
vt -4.937143 5.8514285
vt -3.4742856 6.1714287
vt 19.931429 5.6685715
vt 19.931429 6.1714287
vt 1.0112867 3.3227992
vt 1.0112867 4.189616
vt 0.4334086 1.0112867
vt -1.0112867 1.0112867
vt 0.875 3.625
vt 0.875 3.375
vt -0.875 0.875
vt 2.875 0.875
vt 2.875 4.125
vt 2.875 3.625
vt 2.875 -18.875
vt 2.875 4.5
vt 0.875 4.5
vt 8.375 3.375
vt 2.875 3.375
vt 8.375 4.125
vt -3.125 8.375
vt -2.375 2.875
vt 0.375 8.375
vt 0.375 3.625
vt -2.375 3.625
vt -2.375 3.375
vt 0.375 3.375
vt 0.375 2.875
vt -3.125 3.375
vt -3.125 4.125
vt 0.375 4.875
vt 8.375 3.625
vt 8.375 4.875
vt 0.875 3.84375
vt 0.375 0.875
vt 2.875 2.875
vt 0.375 3.84375
vt 2.875 4.625
vt 2.875 8.375
vt 2.875 4.875
vt 3.8749998 2.625
vt 3.8749998 3.375
vt 4.6249995 3.25
vt 4.6249995 2.625
vt -8.875 4.625
vt -8.875 3.875
vt -3.375 4.625
vt -3.375 4.6249995
vt -8.875 3.8749998
vt -3.375 3.8749998
vt -8.875 2.625
vt -3.375 2.875
vt -8.875 3.25
vt -8.875 4.6249995
vt 3.8749998 2.875
vt 4.6249995 2.875
vt 4.6249995 3.625
vt 3.8749998 3.625
vt 10.375 3.375
vt 10.375 4.125
vt 0.375 10.375
vt -3.125 10.375
vt 10.375 4.875
vt 13.625 3.625
vt 10.375 3.625
vt 13.625 4.125
vt -2.375 13.625
vt 0.375 13.625
vt -3.125 3.625
vt 0.375 3.875
vt -2.375 4.125
vt 13.625 4.875
vt 10.375 3.875
vt 13.625 5.375
vt 13.625 3.375
vt 10.375 8.375
vt 2.875 13.625
vt 10.375 13.625
vt 10.375 6.625
vt 10.375 4.625
vt 10.375 4.375
vt 2.875 5.375
vt 10.375 6.875
vt 8.375 6.625
vt 8.375 4.625
vt 13.625 4.375
vt 13.625 6.875
vt 2.875 3.125
vt 8.375 3.125
vt 10.375 2.875
vt 10.375 5.625
vt 2.875 5.625
vt 2.875 4.375
vt -2.625 2.875
vt -2.625 4.40625
vt 2.875 -2.625
vt 10.375 -2.625
vt 10.375 5.375
vt 2.875 4.40625
vt 2.875 3.875
vt -2.625 5.375
vt -2.625 4.125
vt -8.125 4.3125
vt -2.625 2.625
vt 10.375 -8.125
vt 2.875 -8.125
vt 10.375 5.875
vt 2.875 4.3125
vt 2.875 2.625
vt -2.625 3.625
vt -8.125 5.875
vt -13.625 2.625
vt -13.625 4.21875
vt 10.375 -13.625
vt 2.875 -13.625
vt 2.875 4.21875
vt -13.625 6.625
vt -13.625 3.875
vt -18.875 2.625
vt 10.375 -18.875
vt -18.875 6.875
vt -18.875 3.875
vt -13.625 3.625
vt -15.125 2.625
vt -15.125 3.125
vt -14.625 -15.125
vt -14.625 -18.875
vt -14.625 2.875
vt -14.625 2.625
vt -11.375 2.625
vt -11.375 -15.125
vt -14.625 3.125
vt -15.125 2.125
vt -18.875 2.125
vt -18.875 2.375
vt -15.125 2.375
vt -17.625 -15.125
vt -17.625 -18.875
vt -17.625 2.125
vt -14.625 2.375
vt -14.625 2.125
vt -4.375 1.875
vt -4.375 2.375
vt -17.625 -4.375
vt -14.625 -5.375
vt -14.625 -7.625
vt -5.375 3.125
vt -7.625 2.875
vt -5.375 2.125
vt -18.875 1.875
vt -20.625 2.375
vt -20.625 1.875
vt -20.625 -18.875
vt -20.625 -4.375
vt 13.625 0.875
vt 13.625 1.375
vt -19.125 2.375
vt -19.125 1.875
vt -19.125 -4.375
vt -20.625 13.625
vt -19.125 13.625
vt -19.125 0.875
vt -20.625 0.875
vt -20.625 1.375
vt -19.125 1.375
vt -18.875 1.125
vt -18.875 1.625
vt -4.375 1.625
vt -4.375 1.125
vt -23.625 -4.375
vt -23.625 -18.875
vt -23.625 1.625
vt -23.625 1.125
vt 13.625 0.625
vt 13.625 1.125
vt -23.625 13.625
vt -20.625 0.625
vt -23.625 0.625
vt -20.625 1.125
vt 1.625 2.125
vt 1.625 2.625
vt 3.625 2.875
vt 3.625 2.125
vt -11.875 1.625
vt -14.375 3.625
vt -14.375 1.625
vt -11.875 3.625
vt -11.875 3.0625
vt -14.375 2.625
vt -14.375 2.125
vt -14.375 2.875
vt 1.625 2.375
vt 3.625 2.375
vt 3.625 3.0625
vt 1.625 3.0625
vt -1.875 1.875
vt -1.875 3.125
vt 1.625 1.875
vt -14.625 -1.875
vt -12.625 1.625
vt -14.625 1.875
vt -12.625 2.125
vt -12.625 -1.875
vt -14.375 1.875
vt -12.625 2.875
vt -1.875 2.125
vt 1.625 2.875
vt -17.625 2.15625
vt -17.625 1.625
vt -2.625 1.875
vt -2.625 2.4375
vt -1.875 2.4375
vt -17.625 2.4375
vt -17.625 -1.875
vt -17.625 -2.625
vt -14.625 -3.625
vt -3.625 3.125
vt -3.625 2.125
vt 1.625 2.15625
vt 3.375 2.0625
vt 6.125 2
vt 6.125 1.75
vt 3.375 1.875
vt -14.375 5.125
vt -17.625 6.125
vt -17.625 3.375
vt -14.375 2
vt -17.625 1.75
vt -17.625 2
vt -14.375 2.5625
vt -17.625 2.0625
vt 8.125 1.375
vt 8.125 1.875
vt 13.625 1.625
vt -11.375 2.8125
vt -17.625 1.375
vt -11.375 1.625
vt -17.625 13.625
vt -17.625 8.125
vt -11.375 5.125
vt -11.375 13.625
vt -11.375 1.375
vt -11.375 2.375
vt 13.625 2.375
vt 5.125 2.8125
vt 5.125 1.625
vt 10.375 2.375
vt 13.625 2.875
vt -4.125 10.375
vt -7.625 13.625
vt -7.625 10.375
vt -3.375 13.625
vt -4.125 4.125
vt -4.125 3.625
vt -3.375 3.875
vt 13.625 3.875
vt 8.375 2.375
vt 8.375 2.875
vt -7.625 8.375
vt -4.125 8.375
vt -4.125 3.375
vt 5.125 3.375
vt 5.125 2.375
vt -7.125 5.125
vt -3.875 6.375
vt -3.875 3.875
vt -7.125 3.375
vt -7.125 2.375
vt -3.875 3.125
vt 6.375 3.875
vt 6.375 3.125
vt 5.125 1.875
vt 8.375 2.625
vt 8.375 1.625
vt -11.375 8.375
vt -11.375 1.875
vt -7.125 3.125
vt -7.625 2.125
vt 8.375 2.125
vt 5.125 3.125
vt 13.625 1.875
vt -11.375 2.125
vt -11.702031 3.9006772
vt -11.702031 -8.812641
vt -11.702031 3.6117382
vt -8.812641 4.189616
vt -4.189616 4.189616
vt -4.189616 3.9006772
vt -3.9006772 -8.812641
vt -4.189616 -8.812641
vt -4.189616 -5.3453727
vt -9.10158 4.189616
vt -10.546275 3.6117382
vt -10.546275 3.9006772
vt -13.146727 -8.812641
vt -13.146727 3.6117382
vt -10.546275 4.189616
vt -2.167043 4.189616
vt -14.591422 -2.167043
vt -9.125 2.125
vt -14.625 -9.125
vt 3.9006772 3.03386
vt 1.8781039 3.03386
vt 1.8781039 3.9006772
vt 3.9006772 3.9006772
vt -9.257337 3.9006772
vt -11.27991 3.9006772
vt -11.27991 3.03386
vt -9.257337 3.03386
vt -9.257337 1.8781039
vt -11.27991 1.8781039
vt 3.4672687 3.2505643
vt 1.8781039 3.2505643
vt 1.8781039 4.1173816
vt 3.4672687 4.1173816
vt -9.257338 4.1173816
vt -10.846502 4.1173816
vt -10.846502 3.2505643
vt -9.257338 3.2505643
vt -9.257338 1.8781039
vt -10.846502 1.8781039
vt -10.846502 3.4672687
vt -9.257338 3.4672687
vt -8.257337 4.189616
vt -9.702033 4.189616
vt -9.702033 3.3227992
vt -8.257337 3.3227992
vt -8.257337 1.8781039
vt -9.702033 1.8781039
vt 4.1173816 2.8893905
vt 1.8781039 2.8893905
vt 1.8781039 3.7562077
vt 4.1173816 3.7562077
vt -9.257337 3.7562077
vt -11.568849 3.7562077
vt -11.568849 2.8893905
vt -9.257337 2.8893905
vt -11.568849 1.8781039
vt -11.568849 4.1173816
vt -9.257337 4.1173816
vt 2.455982 3.6117382
vt 1.8781039 3.6117382
vt 2.455982 4.189616
vt -13.435666 4.189616
vt -13.724605 4.189616
vt -13.724605 3.6117382
vt -13.435666 3.6117382
vt -13.435666 1.8781039
vt -13.724605 1.8781039
vt -13.724605 2.455982
vt -13.435666 2.455982
vt -12.568849 4.189616
vt -12.857788 4.189616
vt -12.857788 3.6117382
vt -12.568849 3.6117382
vt -12.568849 1.8781039
vt -12.857788 1.8781039
vt -12.857788 2.455982
vt -12.568849 2.455982
vt 2.167043 3.6117382
vt 2.167043 4.189616
vt -12.857788 2.167043
vt -13.435666 2.167043
vt 3.6117382 3.1783295
vt 1.8781039 3.1783295
vt 1.8781039 4.045147
vt 3.6117382 4.045147
vt -9.257337 4.045147
vt -10.990971 4.045147
vt -10.990971 3.1783295
vt -9.257337 3.1783295
vt -10.990971 1.8781039
vt -10.990971 3.6117382
vt -9.257337 3.6117382
vt 3.7562077 3.1060948
vt 1.8781039 3.1060948
vt 1.8781039 3.972912
vt 3.7562077 3.972912
vt -9.257337 3.972912
vt -11.135439 3.972912
vt -11.135439 3.1060948
vt -9.257337 3.1060948
vt -11.135439 1.8781039
vt -11.135439 3.7562077
vt 4.045147 2.9616253
vt 1.8781039 2.9616253
vt 1.8781039 3.8284423
vt 4.045147 3.8284423
vt -9.257338 3.8284423
vt -11.42438 3.8284423
vt -11.42438 2.9616253
vt -9.257338 2.9616253
vt -11.42438 1.8781039
vt -11.42438 4.045147
vt -9.257338 4.045147
vt -2.744921 3.3227992
vt -2.744921 4.189616
vt -11.954853 4.189616
vt -11.954853 3.3227992
vt -9.10158 3.3227992
vt -9.10158 -2.744921
vt -11.954853 -2.744921
vt -11.954853 -2.167043
vt -9.10158 -2.167043
vt -2.167043 3.2505643
vt -2.8893905 3.2505643
vt -2.8893905 4.1173816
vt -2.167043 4.1173816
vt -9.10158 4.1173816
vt -12.099323 4.1173816
vt -12.099323 3.2505643
vt -9.10158 3.2505643
vt -9.10158 -2.8893905
vt -12.099323 -2.8893905
vt -12.099323 -2.167043
vt -2.167043 3.1783295
vt -3.03386 3.1783295
vt -3.03386 4.045147
vt -2.167043 4.045147
vt -9.10158 4.045147
vt -12.243793 4.045147
vt -12.243793 3.1783295
vt -9.10158 3.1783295
vt -9.10158 -3.03386
vt -12.243793 -3.03386
vt -12.243793 -2.167043
vt -2.167043 3.1060948
vt -3.1783295 3.1060948
vt -3.1783295 3.972912
vt -2.167043 3.972912
vt -9.10158 3.972912
vt -12.388262 3.972912
vt -12.388262 3.1060948
vt -9.10158 3.1060948
vt -9.10158 -3.1783295
vt -12.388262 -3.1783295
vt -12.388262 -2.167043
vt -2.167043 3.03386
vt -3.3227992 3.03386
vt -3.3227992 3.9006772
vt -12.532731 3.9006772
vt -12.532731 3.03386
vt -9.10158 -3.3227992
vt -12.532731 -3.3227992
vt -12.532731 -2.167043
vt -2.167043 2.9616253
vt -3.4672687 2.9616253
vt -3.4672687 3.8284423
vt -2.167043 3.8284423
vt -9.10158 3.8284423
vt -12.677201 3.8284423
vt -12.677201 2.9616253
vt -9.10158 2.9616253
vt -9.10158 -3.4672687
vt -12.677201 -3.4672687
vt -12.677201 -2.167043
vt -4.045147 3.1060948
vt -5.778781 3.1060948
vt -5.778781 3.972912
vt -4.045147 3.972912
vt -7.945824 3.972912
vt -8.668172 3.972912
vt -8.668172 3.1060948
vt -7.945824 3.1060948
vt -7.945824 -5.778781
vt -8.668172 -5.778781
vt -8.668172 -4.045147
vt -7.945824 -4.045147
vt -4.189616 3.1783295
vt -5.6343117 3.1783295
vt -5.6343117 4.045147
vt -4.189616 4.045147
vt -7.945824 4.045147
vt -8.523702 4.045147
vt -8.523702 3.1783295
vt -7.945824 3.1783295
vt -7.945824 -5.6343117
vt -8.523702 -5.6343117
vt -8.523702 -4.189616
vt -7.945824 -4.189616
vt -4.334086 3.2505643
vt -5.489842 3.2505643
vt -5.489842 4.1173816
vt -4.334086 4.1173816
vt -7.945824 4.1173816
vt -8.379232 4.1173816
vt -8.379232 3.2505643
vt -7.945824 3.2505643
vt -7.945824 -5.489842
vt -8.379232 -5.489842
vt -8.379232 -4.334086
vt -7.945824 -4.334086
vt -4.478555 3.3227992
vt -4.478555 4.189616
vt -8.234763 4.189616
vt -8.234763 3.3227992
vt -8.234763 -5.3453727
vt -8.234763 -4.478555
vt -7.945824 -4.478555
vt -5.3453727 3.1060948
vt -6.06772 3.1060948
vt -6.06772 3.972912
vt -5.3453727 3.972912
vt -5.4176073 3.972912
vt -7.1512413 3.972912
vt -7.1512413 3.1060948
vt -5.4176073 3.1060948
vt -5.4176073 -6.06772
vt -7.1512413 -6.06772
vt -7.1512413 -5.3453727
vt -5.4176073 -5.3453727
vt -5.3453727 3.1783295
vt -5.9232507 3.1783295
vt -5.9232507 4.045147
vt -5.3453727 4.045147
vt -5.5620766 4.045147
vt -7.006772 4.045147
vt -7.006772 3.1783295
vt -5.5620766 3.1783295
vt -5.5620766 -5.9232507
vt -7.006772 -5.9232507
vt -7.006772 -5.3453727
vt -5.5620766 -5.3453727
vt -5.3453727 3.2505643
vt -5.778781 3.2505643
vt -5.778781 4.1173816
vt -5.3453727 4.1173816
vt -5.7065463 4.1173816
vt -6.8623023 4.1173816
vt -6.8623023 3.2505643
vt -5.7065463 3.2505643
vt -5.7065463 -5.778781
vt -6.8623023 -5.778781
vt -6.8623023 -5.3453727
vt -5.7065463 -5.3453727
vt -5.6343117 3.3227992
vt -5.6343117 4.189616
vt -5.8510156 4.189616
vt -6.717833 4.189616
vt -6.717833 3.3227992
vt -5.8510156 3.3227992
vt -5.8510156 -5.6343117
vt -6.717833 -5.6343117
vt -6.717833 -5.3453727
vt -5.8510156 -5.3453727
vt -10.257337 3.6117382
vt 4.189616 2.8893905
vt 4.189616 3.5756207
vt -12.641084 4.189616
vt -12.641084 3.6117382
vt -13.724605 2.8893905
vt -12.641084 2.8893905
vt -12.641084 1.8781039
vt -13.724605 3.5756207
vt 4.189616 3.6117382
vt 2.455982 2.8893905
vt 2.455982 3.6839728
vt 4.189616 3.6839728
vt -9.257337 4.189616
vt -11.641085 4.189616
vt -11.641085 2.455982
vt -9.257337 2.455982
vt -11.641085 3.6839728
vt -11.641085 2.8893905
vt 4.189616 3.7562077
vt 2.455982 3.7562077
vt 8.375 4.375
vt 2.875 10.375
vt 0.375 4.375
vt 2.875 5.0625
vt 10.375 5.0625

# normals
vn -1 0 0
vn -0.06237828615518053 0.9980525784828885 -0
vn 0 0 1
vn 0 -0 -1
vn 0.04682358629858615 -0.9989031743698379 -0
vn 1 0 0
vn -0.1215411904524988 0.9925863886954068 -0
vn 0.1215411904524988 -0.9925863886954068 -0
vn -0.2110459835108844 0.9774761341556751 -0
vn 0.2216211035889681 -0.9751328557914597 -0
vn -0.28069532657417096 0.9597969231245845 -0
vn 0.27232246579934893 -0.9622060458243663 -0
vn -0.10151362343929042 0.9812983599131407 -0.1635497266521901
vn -0.06880209161537815 0.9976303284229832 -0
vn 0.10151362343929042 -0.9812983599131407 0.1635497266521901
vn 0.13663739713703102 -0.9906211292434748 -0
vn -0.03221089492297919 0.9985377426123548 -0.04341468446140673
vn 0 1 -0
vn 0.06432176285036746 -0.9969873241806958 0.043347274964378076
vn -0.12385985980790676 0.9908788784632541 -0.05308279706053147
vn 0 -0.997458699830735 0.07124704998790964
vn -0 0.9993628543475496 -0.03569153051241248
vn 0.16421793109700583 -0.985307586582035 0.04691940888485881
vn 0 -0.997785157856609 0.06651901052377393
vn -0 0.997785157856609 -0.06651901052377393
vn -0.31622776601683794 0 0.9486832980505138
vn -0.2006687456916247 0.9771695442374769 -0.0697978245883912
vn -0.19262705536701819 0.9806468273230017 -0.03502310097582149
vn 0.1643989873053573 -0.9863939238321437 -0
vn 0.31622776601683794 -0 -0.9486832980505138
vn -0.9908301680442989 0 0.13511320473331348
vn 0 0.9958932064677039 0.09053574604251853
vn 0 -0.9958932064677039 -0.09053574604251853
vn 0.9908301680442989 0 -0.13511320473331348
vn -0.358979079308869 0 -0.9333456062030595
vn -0.1705414337057506 0.9853505058554478 -0
vn -0.08258546857021352 0.9910256228425623 0.10510877818027176
vn 0.06651901052377393 -0.997785157856609 -0
vn 0.10976425998969036 -0.9878783399072132 -0.10976425998969036
vn 0.9838699100999074 -0 -0.17888543819998318
vn -0.2940858488375231 0 0.95577900872195
vn -0.17963289274672883 0.9832537287189368 -0.030726679022466775
vn -0.1029195856789445 0.9880280225178673 -0.11492687067482137
vn 0.0381367701196685 -0.9915560231113809 0.12394450288892261
vn 0.1643835616438356 -0.9863013698630136 -0.0136986301369863
vn 0.43273106758477126 -0 -0.9015230574682734
vn -0.47409982303501746 0 -0.8804710999221753
vn -0.23362617878173675 0.959096944472393 -0.15984949074539884
vn -0.22835631084249447 0.9721835923586899 -0.052081263876358384
vn 0.07669649888473705 -0.9970544855015816 -0
vn 0.24520043366187047 -0.9562816912812948 0.1593802818802158
vn 0.5240974256643347 0 0.851658316704544
vn 0 -1 -0
vn 0 -0.31622776601683794 -0.9486832980505138
vn -0.19611613513818404 0.9805806756909201 -0
vn 0 -0.7071067811865475 -0.7071067811865475
vn 0.0890870806374748 -0.44543540318737396 -0.8908708063747479
vn -0.0808158687660548 0.9967290481146759 -0
vn -0.0640374321307651 0.9976357847740247 -0.024940894619350618
vn 0.05397525801500045 -0.9985422732775083 -0
vn -0.12320456789403357 0.9856365431522686 -0.11550428240065648
vn -0.062361227111867965 0.9977796337898874 -0.02338546016695049
vn 0.08240856434303293 -0.988902772116395 0.12361284651454937
vn -0.12403473458920847 0.9922778767136677 -0
vn -0.1643989873053573 0.9863939238321437 -0
vn -0.04993761694389223 0.9987523388778445 -0
vn 0.04993761694389223 -0.9987523388778445 -0
vn -0.04343722427630694 0.9990561583550596 -0
vn 0.04343722427630694 -0.9990561583550596 -0
vn -0.04467670516087703 0.8935341032175406 0.4467670516087703
vn -0.12933918406776806 0.9916004111862218 -0
vn -0.07754209922001612 0.8917341410301854 0.4458670705150927
vn 0.086629616364842 -0.996240588195683 -0
vn -0.086629616364842 0.996240588195683 -0
vn -0.09950371902099892 0.9950371902099892 -0
vn -0.04990587867821087 0.9981175735642175 -0.03564705619872205
vn -0.9743911956946198 0 -0.22485950669875843
vn -0.21289476747726854 0.9732332227532277 -0.08656160875449381
vn 0 -0.9970544855015815 0.07669649888473704
vn 0 0.9995842091710024 0.028834159879932764
vn 0.242156629991817 -0.968626519967268 0.05588229922888084
vn 0.97439119569462 0 0.22485950669875845
vn -0.2271605885877723 0.9735453796618813 -0.024646718472452693
vn 0 0.9998197891518461 0.01898392004718695
vn 0.06651901052377393 -0.9977851578566089 -0
vn -0.20809837562820788 0.9711257529316367 0.11666121057944986
vn 0 0.9751328557914598 0.22162110358896814
vn 0.07117393398457866 -0.9964350757841013 -0.045292503444731874
vn -0.36949031665427406 0.9237257916356852 -0.10103250846015308
vn -0.25343546880465984 0.9654684525891802 0.060341778286823765
vn 0.09874285972226249 -0.9874285972226249 0.12342857465282811
vn -0.3633882492763924 0.908470623190981 0.20647059617976843
vn 0 0.9989685402102995 0.04540766091864998
vn 0.09940209955881699 -0.9940209955881698 0.04518277252673499
vn -0.06752985426714422 0.9679279111624005 -0.24198197779060013
vn -0.04646139935246818 0.9989200860780658 -0
vn 0.04646139935246818 -0.9989200860780658 -0
vn -0.20952908873087345 0.9778024140774094 -0
vn 0.07069963216402692 -0.9897948502963768 0.1237243562870471
vn -0.2626337062382551 0.9629902562069353 -0.06060777836267425
vn 0.07103825136612021 -0.994535519125683 0.07650273224043716
vn -0.22625856517904516 0.9696795650530508 0.09235043476695722
vn -0.19590268230589522 0.979513411529476 0.046643495787117906
vn 0.13216372009101796 -0.9912279006826346 -0
vn 0.16421793109700583 -0.985307586582035 0.046919408884858814
vn -0.22700732136261847 0.9728885201255077 0.04422220546025035
vn -0.13006826344117037 0.9755119758087778 0.17736581378341415
vn 0.13216372009101796 -0.9912279006826348 -0
vn 0.16423399246192052 -0.9854039547715232 0.04479108885325105
vn -0.1320611326607479 0.9904584949556093 0.03939323559482537
vn -0.12797248718121013 0.9907547394674333 0.04503430633942879
vn -0.20392586333563698 0.9788441440110575 0.016684843363824843
vn -0.12758494537607815 0.9877544158147986 -0.0897958559831635
vn -0.3054551977602454 0.9520681488631025 0.016228434355621067
vn -0.20216080123617747 0.9703718459336518 -0.13232343353640708
vn -0.34420627660781056 0.9387443907485742 0.016763292691938825
vn -0.30518187060028773 0.9512162200528448 -0.0452960104787069
vn -0.07652762418796119 0.9948591144434955 0.0663239409628997
vn -0.24253562503633297 0.9701425001453319 -0
vn -0.16404467873119666 0.9842680723871801 0.06561787149247866
vn 0.08286281154378242 -0.994353738525389 0.06629024923502594
vn -0.242535625036333 0.970142500145332 -0
vn -0.163420413210853 0.980522479265118 0.10894694214056867
vn 0.08304547985373996 -0.9965457582448796 -0
vn 0.163420413210853 -0.980522479265118 0.10894694214056867
vn 0 -0.9984603532054125 0.05547001962252291
vn 0 0.9984603532054125 -0.05547001962252291
vn 0.242535625036333 -0.970142500145332 -0
vn -0.2424476062981644 0.9697904251926576 -0.026938622922018266
vn 0 -0.9996144206527183 0.02776706724035329
vn -0 0.9975974209676802 -0.06927759867831113
vn 0.24198707494913088 -0.9679482997965235 0.06721863193031413
vn -0.1710883008582455 0.9776474334756886 0.12220592918446108
vn -0.07478994824163422 0.9971993098884563 -0
vn 0.09950371902099892 -0.9950371902099892 -0
vn -0.997458699830735 0 -0.07124704998790964
vn -0.13982532744289825 0.9787772921002879 -0.1498128508316767
vn -0 0.9974586998307351 -0.07124704998790965
vn 0.12402986695054366 -0.9922389356043493 0.008859276210753119
vn 0.1414213562373095 -0.9899494936611665 -0
vn -0.5240974256643347 0 -0.851658316704544
vn -0.14167344441641133 0.9822692146204519 0.12278365182755649
vn 0.07669649888473704 -0.9970544855015815 -0
vn -0.22337615632939617 0.9747323185282742 -0
vn 0.08304547985373997 -0.9965457582448797 -0
vn -0.22269407871002575 0.9717559798255669 -0.07808753409312591
vn -0.14114111249560526 0.9785783799695298 -0.1498784194596189
vn 0.08304401885288917 -0.9965282262346701 0.0059317156323492265
vn 0.9974586998307351 0 0.07124704998790965
vn -0.16379845960914108 0.9862391462781969 -0.0224145260517772
vn 0.06274824921633586 -0.9969999597706698 0.0453181799895759
vn 0.2940858488375231 -0 -0.9557790087219501
vn 0.47409982303501746 0 0.8804710999221753
vn -0.43273106758477126 0 0.9015230574682735
vn -0.12701254423739355 0.990878004688886 -0.04503990930404027
vn -0.11898994401872387 0.9915828668226989 -0.051037353439403625
vn 0.025862511745466218 -0.9992334083475585 0.02938921789257525
vn -0.3363363969981562 0.9417419115948374 -0
vn -0.2271934070236501 0.9655719798505129 -0.12670401545549717
vn 0.22903933372554727 -0.9734171683335759 -0
vn 0.33261247007601125 -0.9313149162128315 0.1483963328031435
vn 0.9743911956946198 0 0.22485950669875843
vn 0.27472112789737807 -0.9615239476408232 -0
vn 0.33402995547944664 -0.9352838753424506 0.11691048441780633
vn -0.9883716976506172 0 0.1520571842539411
vn -0.33488697292304037 0.9376835241845131 -0.09273793096330349
vn -0.09947930192872806 0.9857494463846689 0.1356535935391746
vn 0.21276877547835968 -0.9765541233493945 -0.03273365776590149
vn 0.2714985978353252 -0.9502450924236382 -0.15271796128237042
vn 0.3589790793088691 0 0.9333456062030595
vn 0.9922778767136677 0 -0.12403473458920847
vn -0.1309946455585587 0.989737321997999 -0.05710023011526918
vn -0.06584663360775132 0.9876995041162698 -0.14182351853977207
vn 0.13178120027308288 -0.9883590020481215 0.0760276155421632
vn 0.27362661098647423 -0.9303304773540123 0.24415912980331544
vn 0.9883716976506172 -0 -0.1520571842539411
vn -0.13201673755028143 0.9901255316271106 -0.04714883483938622
vn -0.06651901052377393 0.9977851578566089 -0
vn 0 -0.9988681377244376 0.04756514941544941
vn 0.06622069073838345 -0.9933103610757517 0.09460098676911921
vn 0 -0.9805806756909202 0.19611613513818404
vn -0 0.9805806756909202 -0.19611613513818404
vn -0.19611613513818402 0.9805806756909201 -0
vn -0 0.9863939238321437 -0.1643989873053573
vn 0.1935483870967742 -0.967741935483871 0.16129032258064516
vn -0.0827605888602368 0.9931270663228415 -0.0827605888602368
vn 0.08297398136450224 -0.9956877763740268 0.04148699068225112
vn -0.03331076873734053 0.999323062120216 -0.015614422845628376
vn -0.028559773898876994 0.9995920864606948 -0
vn 0 0.9956342260592882 0.09334070869305827
vn -0.19611613513818404 0.9805806756909202 -0
vn -0.0744484972212846 0.9926466296171281 0.09544679130933925
vn 0.0992135185691766 -0.992135185691766 0.07631809120705892

o entity0_brush0
usemtl house6/Granite_Dark_Gray
f  1/1/1  2/2/1  3/3/1  4/4/1
usemtl house6/Granite_Dark_Gray
f  5/5/2  3/6/2  2/7/2  6/8/2
usemtl house6/Granite_Dark_Gray
f  6/9/3  2/10/3  1/11/3  7/12/3
usemtl house6/Granite_Dark_Gray
f  8/12/4  4/11/4  3/10/4  5/9/4
usemtl house6/Granite_Dark_Gray
f  7/8/5  1/7/5  4/6/5  8/5/5
usemtl house6/Granite_Dark_Gray
f  8/13/6  5/14/6  6/15/6  7/16/6

o entity0_brush1
usemtl house6/Granite_Dark_Gray
f  9/16/1  10/15/1  11/14/1  12/13/1
usemtl house6/Granite_Dark_Gray
f  13/17/7  11/5/7  10/8/7  14/18/7
usemtl house6/Granite_Dark_Gray
f  14/19/3  10/9/3  9/12/3  15/20/3
usemtl house6/Granite_Dark_Gray
f  16/20/4  12/12/4  11/9/4  13/19/4
usemtl house6/Granite_Dark_Gray
f  15/18/8  9/8/8  12/5/8  16/17/8
usemtl house6/Granite_Dark_Gray
f  16/21/6  13/22/6  14/23/6  15/24/6

o entity0_brush2
usemtl house6/Granite_Dark_Gray
f  17/24/1  18/23/1  19/22/1  20/21/1
usemtl house6/Granite_Dark_Gray
f  21/25/9  19/17/9  18/18/9  22/26/9
usemtl house6/Granite_Dark_Gray
f  22/27/3  18/19/3  17/20/3  23/28/3
usemtl house6/Granite_Dark_Gray
f  24/28/4  20/20/4  19/19/4  21/27/4
usemtl house6/Granite_Dark_Gray
f  23/26/10  17/18/10  20/17/10  24/25/10
usemtl house6/Granite_Dark_Gray
f  24/29/6  21/30/6  22/31/6  23/32/6

o entity0_brush3
usemtl house6/Granite_Dark_Gray
f  25/32/1  26/31/1  27/30/1  28/29/1
usemtl house6/Granite_Dark_Gray
f  29/33/11  27/25/11  26/26/11  30/34/11
usemtl house6/Granite_Dark_Gray
f  30/35/3  26/27/3  25/28/3  31/36/3
usemtl house6/Granite_Dark_Gray
f  32/36/4  28/28/4  27/27/4  29/35/4
usemtl house6/Granite_Dark_Gray
f  31/34/12  25/26/12  28/25/12  32/33/12
usemtl house6/Granite_Dark_Gray
f  32/37/6  29/38/6  30/39/6  31/40/6

o entity0_brush4
usemtl house6/Granite_Dark_Gray
f  33/41/1  34/42/1  35/43/1  36/44/1
usemtl house6/Granite_Dark_Gray
f  35/45/13  34/46/13  37/47/13
usemtl house6/Granite_Dark_Gray
f  37/47/14  34/46/14  38/48/14
usemtl house6/Granite_Dark_Gray
f  38/49/3  34/50/3  33/51/3  39/52/3
usemtl house6/Granite_Dark_Gray
f  40/52/4  36/53/4  35/54/4  37/49/4
usemtl house6/Granite_Dark_Gray
f  39/48/15  33/46/15  36/45/15
usemtl house6/Granite_Dark_Gray
f  39/48/16  36/45/16  40/47/16
usemtl house6/Granite_Dark_Gray
f  40/55/6  37/56/6  38/57/6  39/58/6

o entity0_brush5
usemtl house6/Polished_Concrete_New
f  41/59/1  42/60/1  43/61/1  44/62/1
usemtl house6/Polished_Concrete_New
f  43/63/17  42/64/17  45/65/17
usemtl house6/Polished_Concrete_New
f  46/66/3  42/67/3  41/68/3  47/69/3
usemtl house6/Polished_Concrete_New
f  45/65/18  42/64/18  46/70/18
usemtl house6/Polished_Concrete_New
f  48/71/4  44/72/4  43/73/4  45/66/4
usemtl house6/Polished_Concrete_New
f  47/70/19  41/64/19  44/63/19  48/65/19
usemtl house6/Polished_Concrete_New
f  46/60/6  47/74/6  48/75/6  45/76/6

o entity0_brush6
usemtl house6/Granite_Dark_Gray
f  49/77/1  50/78/1  51/79/1  52/80/1
usemtl house6/Granite_Dark_Gray
f  52/81/20  51/82/20  53/83/20
usemtl house6/Granite_Dark_Gray
f  54/84/3  51/85/3  50/86/3  55/87/3
usemtl house6/Granite_Dark_Gray
f  55/88/21  50/82/21  49/81/21
usemtl house6/Granite_Dark_Gray
f  53/83/22  51/82/22  54/88/22
usemtl house6/Granite_Dark_Gray
f  56/89/4  49/90/4  52/91/4  53/92/4
usemtl house6/Granite_Dark_Gray
f  55/88/23  49/81/23  56/83/23
usemtl house6/Granite_Dark_Gray
f  54/79/6  55/78/6  56/15/6  53/93/6

o entity0_brush7
usemtl house6/Granite_Dark_Gray
f  57/78/1  58/94/1  59/95/1  60/79/1
usemtl house6/Granite_Dark_Gray
f  61/96/3  59/97/3  58/98/3  62/99/3
usemtl house6/Granite_Dark_Gray
f  62/100/24  58/101/24  57/82/24  63/88/24
usemtl house6/Granite_Dark_Gray
f  64/88/25  60/82/25  59/101/25  61/100/25
usemtl house6/Granite_Dark_Gray
f  63/87/4  57/86/4  60/85/4  64/84/4
usemtl house6/Granite_Dark_Gray
f  64/79/6  61/95/6  62/94/6  63/78/6

o entity0_brush8
usemtl house6/Granite_Dark_Gray
f  65/102/1  66/94/1  67/95/1  68/103/1
usemtl house6/Granite_Dark_Gray
f  69/104/26  67/96/26  66/99/26  70/105/26
usemtl house6/Granite_Dark_Gray
f  68/106/27  67/100/27  71/107/27
usemtl house6/Granite_Dark_Gray
f  71/107/28  67/100/28  69/108/28
usemtl house6/Granite_Dark_Gray
f  70/108/29  66/100/29  65/106/29  72/107/29
usemtl house6/Granite_Dark_Gray
f  72/105/30  65/99/30  68/109/30  71/110/30
usemtl house6/Granite_Dark_Gray
f  69/111/6  70/112/6  72/113/6  71/114/6

o entity0_brush9
usemtl house6/Granite_Dark_Gray
f  73/115/31  74/116/31  75/117/31  76/118/31
usemtl house6/Granite_Dark_Gray
f  77/119/3  75/120/3  74/121/3  78/122/3
usemtl house6/Granite_Dark_Gray
f  79/123/32  76/124/32  75/125/32  77/126/32
usemtl house6/Granite_Dark_Gray
f  78/126/33  74/125/33  73/124/33  80/123/33
usemtl house6/Granite_Dark_Gray
f  80/127/4  73/128/4  76/129/4  79/130/4
usemtl house6/Granite_Dark_Gray
f  77/117/34  78/116/34  80/115/34  79/118/34

o entity0_brush10
usemtl house6/Granite_Dark_Gray
f  81/58/1  82/57/1  83/56/1  84/55/1
usemtl house6/Granite_Dark_Gray
f  85/131/35  84/52/35  83/49/35  86/132/35
usemtl house6/Granite_Dark_Gray
f  86/133/36  83/47/36  82/48/36
usemtl house6/Granite_Dark_Gray
f  86/133/37  82/48/37  87/120/37
usemtl house6/Granite_Dark_Gray
f  87/134/3  82/49/3  81/52/3  88/121/3
usemtl house6/Granite_Dark_Gray
f  88/120/38  81/48/38  84/47/38
usemtl house6/Granite_Dark_Gray
f  88/120/39  84/47/39  85/133/39
usemtl house6/Granite_Dark_Gray
f  85/135/40  86/136/40  87/137/40  88/57/40

o entity0_brush11
usemtl house6/Granite_Dark_Gray
f  89/138/1  90/139/1  91/140/1  92/141/1
usemtl house6/Granite_Dark_Gray
f  93/53/41  94/54/41  91/142/41  90/87/41
usemtl house6/Granite_Dark_Gray
f  92/143/42  91/144/42  94/45/42
usemtl house6/Granite_Dark_Gray
f  92/143/43  94/45/43  95/145/43
usemtl house6/Granite_Dark_Gray
f  95/146/3  94/54/3  93/53/3  96/147/3
usemtl house6/Granite_Dark_Gray
f  93/45/44  90/144/44  89/143/44
usemtl house6/Granite_Dark_Gray
f  96/145/45  93/45/45  89/143/45
usemtl house6/Granite_Dark_Gray
f  95/146/46  96/147/46  89/148/46  92/149/46

o entity0_brush12
usemtl house6/Granite_Dark_Gray
f  97/150/1  98/151/1  99/152/1  100/153/1
usemtl house6/Granite_Dark_Gray
f  101/53/47  99/87/47  98/84/47  102/54/47
usemtl house6/Granite_Dark_Gray
f  102/45/48  98/154/48  103/46/48
usemtl house6/Granite_Dark_Gray
f  103/46/49  98/154/49  97/148/49
usemtl house6/Granite_Dark_Gray
f  100/148/50  99/154/50  101/45/50
usemtl house6/Granite_Dark_Gray
f  104/46/51  100/148/51  101/45/51
usemtl house6/Granite_Dark_Gray
f  103/50/52  97/155/52  100/87/52  104/51/52
usemtl house6/Granite_Dark_Gray
f  104/41/6  101/44/6  102/43/6  103/42/6

o entity0_brush13
usemtl house6/Polished_Concrete_New
f  105/156/1  106/157/1  107/158/1  108/159/1
usemtl house6/Polished_Concrete_New
f  109/160/3  107/161/3  106/162/3  110/163/3
usemtl house6/Polished_Concrete_New
f  110/164/53  106/165/53  105/162/53  111/163/53
usemtl house6/Polished_Concrete_New
f  112/163/18  108/162/18  107/165/18  109/164/18
usemtl house6/Polished_Concrete_New
f  111/163/4  105/162/4  108/161/4  112/160/4
usemtl house6/Polished_Concrete_New
f  112/159/6  109/158/6  110/157/6  111/156/6

o entity0_brush14
usemtl house6/Polished_Concrete_New
f  113/166/1  114/167/1  115/168/1  116/169/1
usemtl house6/Polished_Concrete_New
f  117/161/3  115/170/3  114/171/3  118/162/3
usemtl house6/Polished_Concrete_New
f  118/172/53  114/173/53  113/174/53  119/175/53
usemtl house6/Polished_Concrete_New
f  120/175/18  116/174/18  115/173/18  117/172/18
usemtl house6/Polished_Concrete_New
f  119/162/4  113/171/4  116/170/4  120/161/4
usemtl house6/Polished_Concrete_New
f  120/169/6  117/168/6  118/167/6  119/166/6

o entity0_brush15
usemtl house6/Polished_Concrete_New
f  121/176/1  122/177/1  123/178/1  124/179/1
usemtl house6/Polished_Concrete_New
f  125/161/3  123/180/3  122/71/3  126/162/3
usemtl house6/Polished_Concrete_New
f  126/181/53  122/182/53  121/183/53  127/184/53
usemtl house6/Polished_Concrete_New
f  128/184/18  124/183/18  123/182/18  125/181/18
usemtl house6/Polished_Concrete_New
f  127/162/4  121/71/4  124/180/4  128/161/4
usemtl house6/Polished_Concrete_New
f  128/179/6  125/178/6  126/177/6  127/176/6

o entity0_brush16
usemtl house6/Polished_Concrete_New
f  129/177/1  130/185/1  131/186/1  132/178/1
usemtl house6/Polished_Concrete_New
f  133/161/3  131/180/3  130/71/3  134/162/3
usemtl house6/Polished_Concrete_New
f  134/187/53  130/188/53  129/182/53  135/181/53
usemtl house6/Polished_Concrete_New
f  136/181/18  132/182/18  131/188/18  133/187/18
usemtl house6/Polished_Concrete_New
f  135/162/4  129/71/4  132/180/4  136/161/4
usemtl house6/Polished_Concrete_New
f  136/178/6  133/186/6  134/185/6  135/177/6

o entity0_brush17
usemtl house6/Polished_Concrete_New
f  137/189/1  138/190/1  139/191/1  140/192/1
usemtl house6/Polished_Concrete_New
f  141/193/3  139/66/3  138/194/3  142/195/3
usemtl house6/Polished_Concrete_New
f  142/196/53  138/197/53  137/188/53  143/187/53
usemtl house6/Polished_Concrete_New
f  144/187/18  140/188/18  139/197/18  141/196/18
usemtl house6/Polished_Concrete_New
f  143/195/4  137/194/4  140/66/4  144/193/4
usemtl house6/Polished_Concrete_New
f  144/192/6  141/191/6  142/190/6  143/189/6

o entity0_brush18
usemtl house6/Polished_Concrete_New
f  145/176/1  146/198/1  147/199/1  148/179/1
usemtl house6/Polished_Concrete_New
f  149/180/3  147/200/3  146/201/3  150/71/3
usemtl house6/Polished_Concrete_New
f  150/202/53  146/203/53  145/204/53  151/183/53
usemtl house6/Polished_Concrete_New
f  152/183/18  148/204/18  147/203/18  149/202/18
usemtl house6/Polished_Concrete_New
f  151/71/4  145/201/4  148/200/4  152/180/4
usemtl house6/Polished_Concrete_New
f  152/179/6  149/199/6  150/198/6  151/176/6

o entity0_brush19
usemtl house6/Polished_Concrete_New
f  153/205/1  154/201/1  155/200/1  156/170/1
usemtl house6/Polished_Concrete_New
f  157/180/3  155/206/3  154/207/3  158/71/3
usemtl house6/Polished_Concrete_New
f  158/208/53  154/209/53  153/210/53  159/211/53
usemtl house6/Polished_Concrete_New
f  160/212/18  156/213/18  155/209/18  157/208/18
usemtl house6/Polished_Concrete_New
f  159/71/54  153/207/54  156/206/54  160/180/54
usemtl house6/Polished_Concrete_New
f  160/170/6  157/200/6  158/201/6  159/205/6

o entity0_brush20
usemtl house6/Polished_Concrete_New
f  161/214/1  162/215/1  163/216/1  164/217/1
usemtl house6/Polished_Concrete_New
f  165/218/3  163/67/3  162/68/3  166/219/3
usemtl house6/Polished_Concrete_New
f  166/220/53  162/221/53  161/222/53  167/223/53
usemtl house6/Polished_Concrete_New
f  168/224/18  164/225/18  163/221/18  165/220/18
usemtl house6/Polished_Concrete_New
f  167/219/54  161/68/54  164/67/54  168/218/54
usemtl house6/Polished_Concrete_New
f  168/217/6  165/216/6  166/215/6  167/214/6

o entity0_brush21
usemtl house6/Polished_Concrete_New
f  169/215/1  170/226/1  171/227/1  172/216/1
usemtl house6/Polished_Concrete_New
f  173/218/3  171/67/3  170/68/3  174/219/3
usemtl house6/Polished_Concrete_New
f  174/228/53  170/229/53  169/221/53  175/220/53
usemtl house6/Polished_Concrete_New
f  176/220/18  172/221/18  171/229/18  173/228/18
usemtl house6/Polished_Concrete_New
f  175/219/4  169/68/4  172/67/4  176/218/4
usemtl house6/Polished_Concrete_New
f  176/216/6  173/227/6  174/226/6  175/215/6

o entity0_brush22
usemtl terrain/mpterrax_0
f  177/230/1  178/231/1  179/232/1  180/233/1
usemtl terrain/mpterrax_0
f  181/234/55  180/235/55  179/236/55  182/237/55
usemtl terrain/mpterrax_0
f  182/238/3  179/239/3  178/240/3  183/241/3
usemtl terrain/mpterrax_0
f  183/237/53  178/236/53  177/242/53  184/243/53
usemtl terrain/mpterrax_0
f  184/243/56  177/242/56  180/235/56
usemtl terrain/mpterrax_0
f  184/241/57  180/239/57  181/238/57
usemtl terrain/mpterrax_0
f  181/244/6  182/245/6  183/231/6  184/230/6

o entity0_brush23
usemtl terrain/mpterrax_0
f  185/232/1  186/245/1  187/246/1  188/247/1
usemtl terrain/mpterrax_0
f  189/248/58  187/249/58  186/237/58
usemtl terrain/mpterrax_0
f  190/250/59  187/249/59  189/248/59
usemtl terrain/mpterrax_0
f  189/251/3  186/238/3  185/252/3  191/253/3
usemtl terrain/mpterrax_0
f  192/253/4  188/252/4  187/238/4  190/254/4
usemtl terrain/mpterrax_0
f  191/248/60  185/237/60  188/249/60  192/250/60
usemtl terrain/mpterrax_0
f  191/255/6  192/256/6  190/257/6  189/258/6

o entity0_brush24
usemtl terrain/mpterrax_0
f  193/247/1  194/259/1  195/260/1  196/261/1
usemtl terrain/mpterrax_0
f  195/262/61  194/263/61  197/264/61
usemtl terrain/mpterrax_0
f  197/264/62  194/263/62  198/250/62
usemtl terrain/mpterrax_0
f  198/254/3  194/265/3  193/266/3  199/253/3
usemtl terrain/mpterrax_0
f  200/253/4  196/267/4  195/266/4  197/268/4
usemtl terrain/mpterrax_0
f  199/250/63  193/263/63  196/262/63
usemtl terrain/mpterrax_0
f  199/250/29  196/262/29  200/264/29
usemtl terrain/mpterrax_0
f  200/269/6  197/270/6  198/257/6  199/256/6

o entity0_brush25
usemtl terrain/mpterrax_0
f  201/271/1  202/272/1  203/273/1  204/274/1
usemtl terrain/mpterrax_0
f  205/275/64  203/276/64  202/277/64  206/278/64
usemtl terrain/mpterrax_0
f  206/268/3  202/266/3  201/267/3  207/253/3
usemtl terrain/mpterrax_0
f  208/253/4  204/267/4  203/266/4  205/268/4
usemtl terrain/mpterrax_0
f  207/278/29  201/277/29  204/276/29  208/275/29
usemtl terrain/mpterrax_0
f  208/279/6  205/280/6  206/281/6  207/282/6

o entity0_brush26
usemtl terrain/mpterrax_0
f  209/283/1  210/284/1  211/285/1  212/286/1
usemtl terrain/mpterrax_0
f  213/278/65  211/277/65  210/262/65  214/264/65
usemtl terrain/mpterrax_0
f  214/268/3  210/287/3  209/288/3  215/289/3
usemtl terrain/mpterrax_0
f  216/289/4  212/288/4  211/287/4  213/268/4
usemtl terrain/mpterrax_0
f  215/264/29  209/262/29  212/277/29  216/278/29
usemtl terrain/mpterrax_0
f  216/290/6  213/281/6  214/270/6  215/291/6

o entity0_brush27
usemtl terrain/mpterrax_0
f  217/292/1  218/261/1  219/271/1  220/293/1
usemtl terrain/mpterrax_0
f  221/277/66  219/294/66  218/295/66  222/262/66
usemtl terrain/mpterrax_0
f  222/287/3  218/296/3  217/297/3  223/288/3
usemtl terrain/mpterrax_0
f  224/288/4  220/297/4  219/296/4  221/287/4
usemtl terrain/mpterrax_0
f  223/262/67  217/295/67  220/294/67  224/277/67
usemtl terrain/mpterrax_0
f  224/286/6  221/285/6  222/284/6  223/283/6

o entity0_brush28
usemtl terrain/mpterrax_0
f  225/298/1  226/283/1  227/286/1  228/299/1
usemtl terrain/mpterrax_0
f  229/294/68  227/300/68  226/301/68  230/295/68
usemtl terrain/mpterrax_0
f  230/296/3  226/302/3  225/303/3  231/297/3
usemtl terrain/mpterrax_0
f  232/297/4  228/303/4  227/302/4  229/296/4
usemtl terrain/mpterrax_0
f  231/295/69  225/301/69  228/300/69  232/294/69
usemtl terrain/mpterrax_0
f  232/293/6  229/271/6  230/261/6  231/292/6

o entity0_brush29
usemtl terrain/mpterrax_0
f  233/286/1  234/285/1  235/304/1  236/305/1
usemtl terrain/mpterrax_0
f  235/306/70  234/294/70  237/277/70
usemtl terrain/mpterrax_0
f  237/266/3  234/307/3  233/308/3  238/267/3
usemtl terrain/mpterrax_0
f  239/309/18  235/306/18  237/277/18
usemtl terrain/mpterrax_0
f  240/267/4  236/308/4  235/310/4  239/266/4
usemtl terrain/mpterrax_0
f  238/277/67  233/294/67  236/306/67  240/309/67
usemtl terrain/mpterrax_0
f  237/272/6  238/271/6  240/311/6  239/304/6

o entity0_brush30
usemtl terrain/mpterrax_0
f  241/299/1  242/286/1  243/305/1  244/312/1
usemtl terrain/mpterrax_0
f  243/313/71  242/300/71  245/306/71
usemtl terrain/mpterrax_0
f  245/306/72  242/300/72  246/294/72
usemtl terrain/mpterrax_0
f  246/307/3  242/302/3  241/303/3  247/308/3
usemtl terrain/mpterrax_0
f  248/308/4  244/303/4  243/302/4  245/310/4
usemtl terrain/mpterrax_0
f  247/294/73  241/300/73  244/313/73  248/306/73
usemtl terrain/mpterrax_0
f  247/286/6  248/305/6  245/304/6  246/285/6

o entity0_brush31
usemtl terrain/mpterrax_0
f  249/314/1  250/315/1  251/283/1  252/298/1
usemtl terrain/mpterrax_0
f  253/295/74  251/301/74  250/316/74  254/317/74
usemtl terrain/mpterrax_0
f  254/307/3  250/302/3  249/303/3  255/308/3
usemtl terrain/mpterrax_0
f  256/308/4  252/303/4  251/302/4  253/307/4
usemtl terrain/mpterrax_0
f  255/317/73  249/316/73  252/301/73  256/295/73
usemtl terrain/mpterrax_0
f  256/283/6  253/284/6  254/230/6  255/315/6

o entity0_brush32
usemtl terrain/mpterrax_0
f  257/315/1  258/230/1  259/284/1  260/283/1
usemtl terrain/mpterrax_0
f  261/262/66  259/295/66  258/317/66  262/318/66
usemtl terrain/mpterrax_0
f  262/266/3  258/307/3  257/308/3  263/267/3
usemtl terrain/mpterrax_0
f  264/267/4  260/308/4  259/307/4  261/266/4
usemtl terrain/mpterrax_0
f  263/318/67  257/317/67  260/295/67  264/262/67
usemtl terrain/mpterrax_0
f  264/261/6  261/260/6  262/319/6  263/320/6

o entity0_brush33
usemtl terrain/mpterrax_0
f  265/321/1  266/322/1  267/279/1  268/323/1
usemtl terrain/mpterrax_0
f  269/275/75  268/324/75  267/325/75
usemtl terrain/mpterrax_0
f  270/326/76  268/324/76  269/275/76
usemtl terrain/mpterrax_0
f  269/268/3  267/327/3  266/328/3  271/289/3
usemtl terrain/mpterrax_0
f  271/275/53  266/325/53  265/324/53  272/326/53
usemtl terrain/mpterrax_0
f  272/289/4  265/328/4  268/327/4  270/329/4
usemtl terrain/mpterrax_0
f  270/330/6  269/280/6  271/322/6  272/321/6

o entity0_brush34
usemtl house6/Granite_Dark_Gray
f  273/331/77  274/332/77  275/333/77  276/334/77
usemtl house6/Granite_Dark_Gray
f  276/335/78  275/336/78  277/337/78
usemtl house6/Granite_Dark_Gray
f  278/130/3  275/129/3  274/128/3  279/127/3
usemtl house6/Granite_Dark_Gray
f  279/338/79  274/336/79  273/335/79
usemtl house6/Granite_Dark_Gray
f  277/337/80  275/336/80  278/338/80
usemtl house6/Granite_Dark_Gray
f  280/339/4  273/120/4  276/340/4  277/341/4
usemtl house6/Granite_Dark_Gray
f  279/338/81  273/335/81  280/337/81
usemtl house6/Granite_Dark_Gray
f  278/333/82  279/332/82  280/342/82  277/343/82

o entity0_brush35
usemtl house6/Granite_Dark_Gray
f  281/332/1  282/115/1  283/118/1  284/333/1
usemtl house6/Granite_Dark_Gray
f  285/130/3  283/129/3  282/128/3  286/127/3
usemtl house6/Granite_Dark_Gray
f  286/123/53  282/124/53  281/336/53  287/338/53
usemtl house6/Granite_Dark_Gray
f  288/338/18  284/336/18  283/124/18  285/123/18
usemtl house6/Granite_Dark_Gray
f  287/127/4  281/128/4  284/129/4  288/130/4
usemtl house6/Granite_Dark_Gray
f  288/333/6  285/118/6  286/115/6  287/332/6

o entity0_brush36
usemtl house6/Polished_Concrete_New
f  289/156/1  290/344/1  291/345/1  292/159/1
usemtl house6/Polished_Concrete_New
f  293/199/3  291/160/3  290/163/3  294/198/3
usemtl house6/Polished_Concrete_New
f  294/346/53  290/347/53  289/163/53  295/198/53
usemtl house6/Polished_Concrete_New
f  296/198/18  292/163/18  291/347/18  293/346/18
usemtl house6/Polished_Concrete_New
f  295/198/4  289/163/4  292/160/4  296/199/4
usemtl house6/Polished_Concrete_New
f  296/159/6  293/345/6  294/344/6  295/156/6

o entity0_brush37
usemtl terrain/mpterrax_0
f  297/245/1  298/258/1  299/348/1  300/349/1
usemtl terrain/mpterrax_0
f  299/350/83  298/248/83  301/351/83
usemtl terrain/mpterrax_0
f  302/352/3  298/251/3  297/289/3  303/353/3
usemtl terrain/mpterrax_0
f  301/351/84  298/248/84  302/354/84
usemtl terrain/mpterrax_0
f  304/353/4  300/289/4  299/253/4  301/355/4
usemtl terrain/mpterrax_0
f  303/354/85  297/248/85  300/350/85  304/351/85
usemtl terrain/mpterrax_0
f  302/258/6  303/255/6  304/348/6  301/356/6

o entity0_brush38
usemtl terrain/mpterrax_0
f  305/357/31  306/358/31  307/353/31  308/359/31
usemtl terrain/mpterrax_0
f  308/360/86  307/361/86  309/362/86
usemtl terrain/mpterrax_0
f  310/363/3  307/364/3  306/365/3  311/366/3
usemtl terrain/mpterrax_0
f  309/362/87  307/361/87  310/367/87
usemtl terrain/mpterrax_0
f  311/367/53  306/361/53  305/360/53
usemtl terrain/mpterrax_0
f  312/363/4  305/368/4  308/369/4  309/370/4
usemtl terrain/mpterrax_0
f  311/367/88  305/360/88  312/362/88
usemtl terrain/mpterrax_0
f  310/353/6  311/358/6  312/371/6  309/372/6

o entity0_brush39
usemtl terrain/mpterrax_0
f  313/358/1  314/349/1  315/373/1  316/353/1
usemtl terrain/mpterrax_0
f  316/367/89  315/374/89  317/375/89
usemtl terrain/mpterrax_0
f  317/375/90  315/374/90  318/351/90
usemtl terrain/mpterrax_0
f  318/355/3  315/376/3  314/366/3  319/353/3
usemtl terrain/mpterrax_0
f  314/374/53  313/367/53  320/375/53
usemtl terrain/mpterrax_0
f  320/358/4  313/366/4  316/363/4  317/377/4
usemtl terrain/mpterrax_0
f  319/351/91  314/374/91  320/375/91
usemtl terrain/mpterrax_0
f  320/358/6  317/377/6  318/356/6  319/348/6

o entity0_brush40
usemtl terrain/mpterrax_0
f  321/357/1  322/358/1  323/353/1  324/372/1
usemtl terrain/mpterrax_0
f  324/362/92  323/367/92  325/375/92
usemtl terrain/mpterrax_0
f  325/377/3  323/363/3  322/366/3  326/353/3
usemtl terrain/mpterrax_0
f  327/378/93  324/362/93  325/375/93
usemtl terrain/mpterrax_0
f  322/367/53  321/362/53  328/378/53
usemtl terrain/mpterrax_0
f  328/358/4  321/366/4  324/370/4  327/379/4
usemtl terrain/mpterrax_0
f  326/375/94  322/367/94  328/378/94
usemtl terrain/mpterrax_0
f  326/353/6  328/357/6  327/372/6  325/377/6

o entity0_brush41
usemtl terrain/mpterrax_0
f  329/380/1  330/381/1  331/382/1  332/383/1
usemtl terrain/mpterrax_0
f  331/384/95  330/385/95  333/386/95
usemtl terrain/mpterrax_0
f  333/387/96  330/388/96  334/389/96
usemtl terrain/mpterrax_0
f  334/327/3  330/244/3  329/390/3  335/391/3
usemtl terrain/mpterrax_0
f  336/391/4  332/390/4  331/392/4  333/327/4
usemtl terrain/mpterrax_0
f  335/389/97  329/388/97  332/393/97  336/387/97
usemtl terrain/mpterrax_0
f  335/394/6  336/395/6  333/396/6  334/397/6

o entity0_brush42
usemtl terrain/mpterrax_0
f  337/398/1  338/357/1  339/359/1  340/399/1
usemtl terrain/mpterrax_0
f  341/400/98  340/401/98  339/360/98  342/362/98
usemtl terrain/mpterrax_0
f  342/370/3  339/369/3  338/368/3  343/363/3
usemtl terrain/mpterrax_0
f  338/360/53  337/401/53  344/400/53
usemtl terrain/mpterrax_0
f  344/366/4  337/368/4  340/369/4  341/370/4
usemtl terrain/mpterrax_0
f  343/362/99  338/360/99  344/400/99
usemtl terrain/mpterrax_0
f  344/398/6  341/402/6  342/372/6  343/371/6

o entity0_brush43
usemtl terrain/mpterrax_0
f  345/403/77  346/404/77  347/399/77  348/405/77
usemtl terrain/mpterrax_0
f  348/406/100  347/401/100  349/407/100
usemtl terrain/mpterrax_0
f  349/407/98  347/401/98  350/400/98
usemtl terrain/mpterrax_0
f  350/370/3  347/369/3  346/408/3  351/409/3
usemtl terrain/mpterrax_0
f  346/401/53  345/406/53  352/407/53
usemtl terrain/mpterrax_0
f  352/363/4  345/364/4  348/410/4  349/370/4
usemtl terrain/mpterrax_0
f  351/400/101  346/401/101  352/407/101
usemtl terrain/mpterrax_0
f  352/403/6  349/411/6  350/402/6  351/412/6

o entity0_brush44
usemtl terrain/mpterrax_0
f  353/357/1  354/372/1  355/413/1  356/414/1
usemtl terrain/mpterrax_0
f  357/415/102  355/416/102  354/378/102
usemtl terrain/mpterrax_0
f  358/417/103  355/416/103  357/415/103
usemtl terrain/mpterrax_0
f  357/418/3  354/379/3  353/358/3  359/419/3
usemtl terrain/mpterrax_0
f  360/420/4  356/358/4  355/421/4  358/422/4
usemtl terrain/mpterrax_0
f  353/378/104  356/416/104  360/417/104
usemtl terrain/mpterrax_0
f  359/415/105  353/378/105  360/417/105
usemtl terrain/mpterrax_0
f  357/423/6  359/424/6  360/425/6  358/426/6

o entity0_brush45
usemtl terrain/mpterrax_0
f  361/427/1  362/377/1  363/372/1  364/428/1
usemtl terrain/mpterrax_0
f  363/378/106  362/375/106  365/415/106
usemtl terrain/mpterrax_0
f  365/415/107  362/375/107  366/429/107
usemtl terrain/mpterrax_0
f  366/430/3  362/377/3  361/427/3  367/420/3
usemtl terrain/mpterrax_0
f  368/399/4  364/427/4  363/379/4  365/418/4
usemtl terrain/mpterrax_0
f  361/375/108  364/378/108  368/415/108
usemtl terrain/mpterrax_0
f  367/429/109  361/375/109  368/415/109
usemtl terrain/mpterrax_0
f  368/359/6  365/423/6  366/431/6  367/432/6

o entity0_brush46
usemtl terrain/mpterrax_0
f  369/433/1  370/434/1  371/377/1  372/375/1
usemtl terrain/mpterrax_0
f  371/375/110  370/435/110  373/429/110
usemtl terrain/mpterrax_0
f  373/429/111  370/435/111  374/436/111
usemtl terrain/mpterrax_0
f  374/437/3  370/438/3  369/375/3  375/399/3
usemtl terrain/mpterrax_0
f  376/412/4  372/375/4  371/377/4  373/430/4
usemtl terrain/mpterrax_0
f  369/435/108  372/375/108  376/429/108
usemtl terrain/mpterrax_0
f  375/436/109  369/435/109  376/429/109
usemtl terrain/mpterrax_0
f  376/439/6  373/431/6  374/440/6  375/441/6

o entity0_brush47
usemtl terrain/mpterrax_0
f  377/271/1  378/442/1  379/434/1  380/443/1
usemtl terrain/mpterrax_0
f  381/444/112  379/435/112  378/445/112
usemtl terrain/mpterrax_0
f  382/436/113  379/435/113  381/444/113
usemtl terrain/mpterrax_0
f  381/446/3  378/447/3  377/448/3  383/412/3
usemtl terrain/mpterrax_0
f  384/404/4  380/448/4  379/438/4  382/437/4
usemtl terrain/mpterrax_0
f  377/445/108  380/435/108  384/436/108
usemtl terrain/mpterrax_0
f  383/444/109  377/445/109  384/436/109
usemtl terrain/mpterrax_0
f  384/449/6  382/440/6  381/450/6  383/281/6

o entity0_brush48
usemtl terrain/mpterrax_0
f  385/451/1  386/452/1  387/442/1  388/271/1
usemtl terrain/mpterrax_0
f  389/453/114  387/445/114  386/454/114
usemtl terrain/mpterrax_0
f  390/444/115  387/445/115  389/453/115
usemtl terrain/mpterrax_0
f  389/418/3  386/455/3  385/448/3  391/412/3
usemtl terrain/mpterrax_0
f  392/404/4  388/448/4  387/447/4  390/446/4
usemtl terrain/mpterrax_0
f  385/454/108  388/445/108  392/444/108
usemtl terrain/mpterrax_0
f  391/453/109  385/454/109  392/444/109
usemtl terrain/mpterrax_0
f  389/456/6  391/457/6  392/282/6  390/450/6

o entity0_brush49
usemtl terrain/mpterrax_0
f  393/458/1  394/258/1  395/452/1  396/451/1
usemtl terrain/mpterrax_0
f  397/459/116  395/454/116  394/354/116
usemtl terrain/mpterrax_0
f  398/453/117  395/454/117  397/459/117
usemtl terrain/mpterrax_0
f  397/422/3  394/352/3  393/448/3  399/412/3
usemtl terrain/mpterrax_0
f  400/404/4  396/448/4  395/455/4  398/418/4
usemtl terrain/mpterrax_0
f  393/354/104  396/454/104  400/453/104
usemtl terrain/mpterrax_0
f  399/459/105  393/354/105  400/453/105
usemtl terrain/mpterrax_0
f  397/460/6  399/461/6  400/462/6  398/456/6

o entity0_brush50
usemtl terrain/mpterrax_0
f  401/463/1  402/458/1  403/231/1  404/464/1
usemtl terrain/mpterrax_0
f  404/465/118  403/466/118  405/236/118
usemtl terrain/mpterrax_0
f  405/239/3  403/467/3  402/468/3  406/469/3
usemtl terrain/mpterrax_0
f  406/236/53  402/466/53  401/465/53  407/470/53
usemtl terrain/mpterrax_0
f  408/470/18  404/465/18  405/236/18
usemtl terrain/mpterrax_0
f  407/469/4  401/468/4  404/471/4  408/239/4
usemtl terrain/mpterrax_0
f  407/463/6  408/464/6  405/232/6  406/458/6

o entity0_brush51
usemtl terrain/mpterrax_0
f  409/472/1  410/473/1  411/474/1  412/475/1
usemtl terrain/mpterrax_0
f  412/476/119  411/477/119  413/465/119
usemtl terrain/mpterrax_0
f  413/465/120  411/477/120  414/466/120
usemtl terrain/mpterrax_0
f  414/467/3  411/302/3  410/478/3  415/479/3
usemtl terrain/mpterrax_0
f  410/477/53  409/476/53  416/465/53
usemtl terrain/mpterrax_0
f  416/480/4  409/478/4  412/302/4  413/471/4
usemtl terrain/mpterrax_0
f  415/466/121  410/477/121  416/465/121
usemtl terrain/mpterrax_0
f  416/472/6  413/464/6  414/231/6  415/474/6

o entity0_brush52
usemtl terrain/mpterrax_0
f  417/481/1  418/312/1  419/305/1  420/482/1
usemtl terrain/mpterrax_0
f  420/483/122  419/313/122  421/484/122
usemtl terrain/mpterrax_0
f  421/484/123  419/313/123  422/485/123
usemtl terrain/mpterrax_0
f  422/467/3  419/302/3  418/303/3  423/479/3
usemtl terrain/mpterrax_0
f  424/484/124  418/313/124  417/483/124
usemtl terrain/mpterrax_0
f  423/485/125  418/313/125  424/484/125
usemtl terrain/mpterrax_0
f  424/480/30  417/303/30  420/302/30  421/471/30
usemtl terrain/mpterrax_0
f  421/486/6  422/487/6  423/305/6  424/488/6

o entity0_brush53
usemtl terrain/mpterrax_0
f  425/481/1  426/489/1  427/474/1  428/482/1
usemtl terrain/mpterrax_0
f  429/302/3  427/490/3  426/491/3  430/303/3
usemtl terrain/mpterrax_0
f  430/477/53  426/492/53  425/493/53  431/483/53
usemtl terrain/mpterrax_0
f  432/483/18  428/493/18  427/492/18  429/477/18
usemtl terrain/mpterrax_0
f  431/303/4  425/491/4  428/490/4  432/302/4
usemtl terrain/mpterrax_0
f  432/482/6  429/474/6  430/489/6  431/481/6

o entity0_brush54
usemtl terrain/mpterrax_0
f  433/494/1  434/481/1  435/482/1  436/495/1
usemtl terrain/mpterrax_0
f  437/496/3  435/490/3  434/491/3  438/497/3
usemtl terrain/mpterrax_0
f  438/498/126  434/493/126  433/499/126  439/500/126
usemtl terrain/mpterrax_0
f  440/500/127  436/499/127  435/493/127  437/498/127
usemtl terrain/mpterrax_0
f  439/501/4  433/502/4  436/503/4  440/504/4
usemtl terrain/mpterrax_0
f  440/495/6  437/482/6  438/481/6  439/494/6

o entity0_brush55
usemtl terrain/mpterrax_0
f  441/505/1  442/506/1  443/507/1  444/508/1
usemtl terrain/mpterrax_0
f  445/493/122  443/509/122  442/510/122  446/492/122
usemtl terrain/mpterrax_0
f  446/490/3  442/511/3  441/512/3  447/491/3
usemtl terrain/mpterrax_0
f  448/491/4  444/512/4  443/511/4  445/490/4
usemtl terrain/mpterrax_0
f  447/492/128  441/510/128  444/509/128  448/493/128
usemtl terrain/mpterrax_0
f  448/481/6  445/482/6  446/474/6  447/489/6

o entity0_brush56
usemtl terrain/mpterrax_0
f  449/513/1  450/508/1  451/507/1  452/514/1
usemtl terrain/mpterrax_0
f  452/515/129  451/509/129  453/493/129
usemtl terrain/mpterrax_0
f  453/490/3  451/511/3  450/512/3  454/491/3
usemtl terrain/mpterrax_0
f  450/509/130  449/515/130  455/499/130
usemtl terrain/mpterrax_0
f  456/499/131  452/515/131  453/493/131
usemtl terrain/mpterrax_0
f  455/516/4  449/517/4  452/512/4  456/518/4
usemtl terrain/mpterrax_0
f  454/493/132  450/509/132  455/499/132
usemtl terrain/mpterrax_0
f  454/481/6  455/513/6  456/514/6  453/482/6

o entity0_brush57
usemtl terrain/mpterrax_0
f  457/519/1  458/520/1  459/521/1  460/522/1
usemtl terrain/mpterrax_0
f  461/523/133  459/524/133  458/525/133
usemtl terrain/mpterrax_0
f  462/526/134  459/524/134  461/523/134
usemtl terrain/mpterrax_0
f  461/527/3  458/528/3  457/529/3  463/308/3
usemtl terrain/mpterrax_0
f  464/308/4  460/529/4  459/530/4  462/527/4
usemtl terrain/mpterrax_0
f  463/523/135  457/525/135  460/524/135  464/526/135
usemtl terrain/mpterrax_0
f  463/531/6  464/532/6  462/533/6  461/534/6

o entity0_brush58
usemtl terrain/mpterrax_0
f  465/535/136  466/536/136  467/520/136  468/537/136
usemtl terrain/mpterrax_0
f  467/525/137  466/538/137  469/539/137
usemtl terrain/mpterrax_0
f  470/247/3  466/471/3  465/540/3  471/541/3
usemtl terrain/mpterrax_0
f  469/539/138  466/538/138  470/542/138
usemtl terrain/mpterrax_0
f  472/541/4  468/543/4  467/528/4  469/544/4
usemtl terrain/mpterrax_0
f  471/542/139  465/538/139  468/525/139
usemtl terrain/mpterrax_0
f  471/542/140  468/525/140  472/539/140
usemtl terrain/mpterrax_0
f  470/536/6  471/545/6  472/519/6  469/546/6

o entity0_brush59
usemtl terrain/mpterrax_0
f  473/529/141  474/303/141  475/547/141  476/530/141
usemtl terrain/mpterrax_0
f  476/524/142  475/548/142  477/525/142
usemtl terrain/mpterrax_0
f  477/528/3  475/547/3  474/303/3  478/529/3
usemtl terrain/mpterrax_0
f  478/525/143  474/548/143  473/524/143
usemtl terrain/mpterrax_0
f  473/522/6  476/521/6  477/520/6  478/519/6

o entity0_brush60
usemtl terrain/mpterrax_0
f  479/549/1  480/550/1  481/551/1  482/535/1
usemtl terrain/mpterrax_0
f  483/471/26  480/552/26  479/303/26  484/480/26
usemtl terrain/mpterrax_0
f  485/538/144  481/553/144  480/554/144  483/555/144
usemtl terrain/mpterrax_0
f  486/480/4  482/303/4  481/552/4  485/471/4
usemtl terrain/mpterrax_0
f  484/555/145  479/554/145  482/553/145  486/538/145
usemtl terrain/mpterrax_0
f  486/545/6  485/536/6  483/556/6  484/557/6

o entity0_brush61
usemtl terrain/mpterrax_0
f  487/535/1  488/551/1  489/558/1  490/537/1
usemtl terrain/mpterrax_0
f  491/538/146  489/548/146  488/553/146
usemtl terrain/mpterrax_0
f  492/525/147  489/548/147  491/538/147
usemtl terrain/mpterrax_0
f  491/471/3  488/552/3  487/303/3  493/480/3
usemtl terrain/mpterrax_0
f  494/529/4  490/303/4  489/547/4  492/528/4
usemtl terrain/mpterrax_0
f  487/553/50  490/548/50  494/525/50
usemtl terrain/mpterrax_0
f  493/538/148  487/553/148  494/525/148
usemtl terrain/mpterrax_0
f  491/536/149  493/545/149  494/519/149  492/520/149

o entity0_brush62
usemtl terrain/mpterrax_0
f  495/559/1  496/560/1  497/561/1  498/562/1
usemtl terrain/mpterrax_0
f  499/563/150  496/564/150  495/565/150
usemtl terrain/mpterrax_0
f  498/565/151  497/564/151  500/563/151
usemtl terrain/mpterrax_0
f  500/566/152  497/567/152  496/568/152  499/569/152
usemtl terrain/mpterrax_0
f  495/570/153  498/303/153  500/566/153  499/569/153

o entity0_brush63
usemtl terrain/mpterrax_0
f  501/495/1  502/571/1  503/572/1  504/573/1
usemtl terrain/mpterrax_0
f  505/574/154  503/303/154  502/575/154  506/576/154
usemtl terrain/mpterrax_0
f  504/577/155  503/578/155  505/579/155
usemtl terrain/mpterrax_0
f  507/580/156  504/577/156  505/579/156
usemtl terrain/mpterrax_0
f  502/578/53  501/577/53  508/580/53
usemtl terrain/mpterrax_0
f  508/581/4  501/575/4  504/548/4  507/582/4
usemtl terrain/mpterrax_0
f  506/579/157  502/578/157  508/580/157
usemtl terrain/mpterrax_0
f  508/495/6  507/583/6  505/584/6  506/585/6

o entity0_brush64
usemtl terrain/mpterrax_0
f  509/586/1  510/429/1  511/587/1  512/583/1
usemtl terrain/mpterrax_0
f  513/588/158  511/589/158  510/590/158
usemtl terrain/mpterrax_0
f  514/591/159  511/589/159  513/588/159
usemtl terrain/mpterrax_0
f  513/592/3  510/487/3  509/305/3  515/593/3
usemtl terrain/mpterrax_0
f  516/328/4  512/305/4  511/487/4  514/594/4
usemtl terrain/mpterrax_0
f  509/590/160  512/589/160  516/591/160
usemtl terrain/mpterrax_0
f  515/588/161  509/590/161  516/591/161
usemtl terrain/mpterrax_0
f  516/414/162  514/595/162  513/399/162  515/404/162

o entity0_brush65
usemtl terrain/mpterrax_0
f  517/596/1  518/597/1  519/429/1  520/586/1
usemtl terrain/mpterrax_0
f  521/588/158  519/590/158  518/598/158  522/599/158
usemtl terrain/mpterrax_0
f  522/592/3  518/487/3  517/305/3  523/593/3
usemtl terrain/mpterrax_0
f  524/600/4  520/305/4  519/487/4  521/592/4
usemtl terrain/mpterrax_0
f  517/598/163  520/590/163  524/588/163
usemtl terrain/mpterrax_0
f  523/599/164  517/598/164  524/588/164
usemtl terrain/mpterrax_0
f  522/359/6  523/371/6  524/398/6  521/399/6

o entity0_brush66
usemtl terrain/mpterrax_0
f  525/601/165  526/597/165  527/596/165  528/602/165
usemtl terrain/mpterrax_0
f  526/598/166  525/603/166  529/599/166
usemtl terrain/mpterrax_0
f  529/599/167  525/603/167  530/604/167
usemtl terrain/mpterrax_0
f  531/600/4  527/305/4  526/487/4  529/592/4
usemtl terrain/mpterrax_0
f  528/603/168  527/598/168  532/604/168
usemtl terrain/mpterrax_0
f  532/604/169  527/598/169  531/599/169
usemtl terrain/mpterrax_0
f  530/605/170  525/606/170  528/607/170  532/608/170
usemtl terrain/mpterrax_0
f  530/609/171  532/610/171  531/357/171  529/359/171

o entity0_brush67
usemtl terrain/mpterrax_0
f  533/611/1  534/584/1  535/612/1  536/613/1
usemtl terrain/mpterrax_0
f  537/603/172  535/614/172  534/579/172
usemtl terrain/mpterrax_0
f  538/598/173  535/614/173  537/603/173
usemtl terrain/mpterrax_0
f  537/606/3  534/574/3  533/615/3  539/616/3
usemtl terrain/mpterrax_0
f  540/617/4  536/576/4  535/469/4  538/487/4
usemtl terrain/mpterrax_0
f  533/579/174  536/614/174  540/598/174
usemtl terrain/mpterrax_0
f  539/603/175  533/579/175  540/598/175
usemtl terrain/mpterrax_0
f  540/618/176  538/597/176  537/601/176  539/619/176

o entity0_brush68
usemtl terrain/mpterrax_0
f  541/620/1  542/618/1  543/612/1  544/583/1
usemtl terrain/mpterrax_0
f  544/580/177  543/614/177  545/589/177
usemtl terrain/mpterrax_0
f  545/589/178  543/614/178  546/598/178
usemtl terrain/mpterrax_0
f  546/487/3  543/469/3  542/621/3  547/305/3
usemtl terrain/mpterrax_0
f  542/614/179  541/580/179  548/589/179
usemtl terrain/mpterrax_0
f  548/312/4  541/615/4  544/582/4  545/487/4
usemtl terrain/mpterrax_0
f  547/598/180  542/614/180  548/589/180
usemtl terrain/mpterrax_0
f  548/620/6  545/587/6  546/597/6  547/596/6

o entity0_brush69
usemtl house6/Polished_Concrete_New
f  549/74/1  550/217/1  551/170/1  552/60/1
usemtl house6/Polished_Concrete_New
f  553/180/3  551/206/3  550/622/3  554/66/3
usemtl house6/Polished_Concrete_New
f  554/212/181  550/213/181  549/623/181  555/70/181
usemtl house6/Polished_Concrete_New
f  556/70/182  552/623/182  551/213/182  553/212/182
usemtl house6/Polished_Concrete_New
f  555/69/4  549/624/4  552/622/4  556/66/4
usemtl house6/Polished_Concrete_New
f  556/60/6  553/170/6  554/217/6  555/74/6

o entity0_brush70
usemtl house6/Polished_Concrete_New
f  557/192/1  558/60/1  559/625/1  560/186/1
usemtl house6/Polished_Concrete_New
f  561/161/3  559/626/3  558/627/3  562/193/3
usemtl house6/Polished_Concrete_New
f  562/628/53  558/629/53  557/630/53  563/187/53
usemtl house6/Polished_Concrete_New
f  564/187/18  560/630/18  559/629/18  561/628/18
usemtl house6/Polished_Concrete_New
f  563/193/4  557/627/4  560/626/4  564/161/4
usemtl house6/Polished_Concrete_New
f  564/186/6  561/625/6  562/60/6  563/192/6

o entity0_brush71
usemtl house6/Polished_Concrete_New
f  565/60/1  566/191/1  567/631/1  568/625/1
usemtl house6/Polished_Concrete_New
f  569/161/3  567/180/3  566/66/3  570/193/3
usemtl house6/Polished_Concrete_New
f  570/196/53  566/197/53  565/70/53  571/628/53
usemtl house6/Polished_Concrete_New
f  572/628/18  568/70/18  567/197/18  569/196/18
usemtl house6/Polished_Concrete_New
f  571/193/4  565/66/4  568/180/4  572/161/4
usemtl house6/Polished_Concrete_New
f  572/625/6  569/631/6  570/191/6  571/60/6

o entity0_brush72
usemtl house6/Polished_Concrete_New
f  573/74/1  574/632/1  575/633/1  576/60/1
usemtl house6/Polished_Concrete_New
f  576/634/183  575/223/183  577/210/183
usemtl house6/Polished_Concrete_New
f  577/206/3  575/218/3  574/635/3  578/622/3
usemtl house6/Polished_Concrete_New
f  574/223/53  573/634/53  579/623/53
usemtl house6/Polished_Concrete_New
f  580/623/184  576/634/184  577/210/184
usemtl house6/Polished_Concrete_New
f  579/624/4  573/635/4  576/218/4  580/622/4
usemtl house6/Polished_Concrete_New
f  578/210/185  574/223/185  579/623/185
usemtl house6/Polished_Concrete_New
f  578/633/6  579/74/6  580/60/6  577/636/6

o entity0_brush73
usemtl house6/Polished_Concrete_New
f  581/198/1  582/75/1  583/637/1  584/199/1
usemtl house6/Polished_Concrete_New
f  585/180/3  583/200/3  582/201/3  586/71/3
usemtl house6/Polished_Concrete_New
f  586/65/53  582/638/53  581/203/53  587/202/53
usemtl house6/Polished_Concrete_New
f  588/202/18  584/203/18  583/638/18  585/65/18
usemtl house6/Polished_Concrete_New
f  587/71/4  581/201/4  584/200/4  588/180/4
usemtl house6/Polished_Concrete_New
f  588/199/6  585/637/6  586/75/6  587/198/6

o entity0_brush74
usemtl terrain/mpterrax_0
f  589/639/1  590/472/1  591/475/1  592/315/1
usemtl terrain/mpterrax_0
f  593/465/119  592/316/119  591/476/119
usemtl terrain/mpterrax_0
f  594/640/186  592/316/186  593/465/186
usemtl terrain/mpterrax_0
f  593/471/3  591/302/3  590/478/3  595/479/3
usemtl terrain/mpterrax_0
f  590/476/53  589/316/53  596/640/53
usemtl terrain/mpterrax_0
f  596/480/4  589/478/4  592/302/4  594/468/4
usemtl terrain/mpterrax_0
f  595/465/187  590/476/187  596/640/187
usemtl terrain/mpterrax_0
f  596/639/6  594/320/6  593/464/6  595/475/6

o entity0_brush75
usemtl house6/Polished_Concrete_New
f  597/641/1  598/642/1  599/643/1  600/644/1
usemtl house6/Polished_Concrete_New
f  601/645/3  599/646/3  598/647/3  602/648/3
usemtl house6/Polished_Concrete_New
f  602/649/53  598/650/53  597/646/53  603/645/53
usemtl house6/Polished_Concrete_New
f  604/645/18  600/646/18  599/650/18  601/649/18
usemtl house6/Polished_Concrete_New
f  603/648/4  597/647/4  600/646/4  604/645/4
usemtl house6/Polished_Concrete_New
f  604/644/6  601/643/6  602/642/6  603/641/6

o entity0_brush76
usemtl house6/Polished_Concrete_New
f  605/651/1  606/652/1  607/653/1  608/654/1
usemtl house6/Polished_Concrete_New
f  609/655/3  607/656/3  606/657/3  610/658/3
usemtl house6/Polished_Concrete_New
f  610/659/53  606/660/53  605/661/53  611/662/53
usemtl house6/Polished_Concrete_New
f  612/662/18  608/661/18  607/660/18  609/659/18
usemtl house6/Polished_Concrete_New
f  611/658/4  605/657/4  608/656/4  612/655/4
usemtl house6/Polished_Concrete_New
f  612/654/6  609/653/6  610/652/6  611/651/6

o entity0_brush77
usemtl house6/Polished_Concrete_New
f  613/156/1  614/176/1  615/179/1  616/159/1
usemtl house6/Polished_Concrete_New
f  617/663/3  615/664/3  614/665/3  618/666/3
usemtl house6/Polished_Concrete_New
f  618/667/53  614/668/53  613/665/53  619/666/53
usemtl house6/Polished_Concrete_New
f  620/666/18  616/665/18  615/668/18  617/667/18
usemtl house6/Polished_Concrete_New
f  619/666/4  613/665/4  616/664/4  620/663/4
usemtl house6/Polished_Concrete_New
f  620/159/6  617/179/6  618/176/6  619/156/6

o entity0_brush78
usemtl house6/Polished_Concrete_New
f  621/669/1  622/670/1  623/671/1  624/672/1
usemtl house6/Polished_Concrete_New
f  625/673/3  623/674/3  622/675/3  626/676/3
usemtl house6/Polished_Concrete_New
f  626/649/53  622/677/53  621/678/53  627/679/53
usemtl house6/Polished_Concrete_New
f  628/679/18  624/678/18  623/677/18  625/649/18
usemtl house6/Polished_Concrete_New
f  627/676/4  621/675/4  624/674/4  628/673/4
usemtl house6/Polished_Concrete_New
f  628/672/6  625/671/6  626/670/6  627/669/6

o entity0_brush79
usemtl house6/Polished_Concrete_New
f  629/680/1  630/681/1  631/179/1  632/682/1
usemtl house6/Polished_Concrete_New
f  633/683/3  631/684/3  630/685/3  634/686/3
usemtl house6/Polished_Concrete_New
f  634/687/53  630/688/53  629/689/53  635/690/53
usemtl house6/Polished_Concrete_New
f  636/690/18  632/689/18  631/688/18  633/687/18
usemtl house6/Polished_Concrete_New
f  635/686/4  629/685/4  632/684/4  636/683/4
usemtl house6/Polished_Concrete_New
f  636/682/6  633/179/6  634/681/6  635/680/6

o entity0_brush80
usemtl house6/Polished_Concrete_New
f  637/680/1  638/681/1  639/179/1  640/682/1
usemtl house6/Polished_Concrete_New
f  641/691/3  639/692/3  638/693/3  642/694/3
usemtl house6/Polished_Concrete_New
f  642/695/53  638/696/53  637/697/53  643/698/53
usemtl house6/Polished_Concrete_New
f  644/698/18  640/697/18  639/696/18  641/695/18
usemtl house6/Polished_Concrete_New
f  643/694/4  637/693/4  640/692/4  644/691/4
usemtl house6/Polished_Concrete_New
f  644/682/6  641/179/6  642/681/6  643/680/6

o entity0_brush81
usemtl house6/Polished_Concrete_New
f  645/680/1  646/699/1  647/700/1  648/682/1
usemtl house6/Polished_Concrete_New
f  649/692/3  647/683/3  646/686/3  650/693/3
usemtl house6/Polished_Concrete_New
f  650/701/53  646/702/53  645/690/53  651/697/53
usemtl house6/Polished_Concrete_New
f  652/697/18  648/690/18  647/702/18  649/701/18
usemtl house6/Polished_Concrete_New
f  651/693/4  645/686/4  648/683/4  652/692/4
usemtl house6/Polished_Concrete_New
f  652/682/6  649/700/6  650/699/6  651/680/6

o entity0_brush82
usemtl house6/Polished_Concrete_New
f  653/703/1  654/704/1  655/705/1  656/706/1
usemtl house6/Polished_Concrete_New
f  657/707/3  655/708/3  654/709/3  658/710/3
usemtl house6/Polished_Concrete_New
f  658/649/53  654/711/53  653/712/53  659/713/53
usemtl house6/Polished_Concrete_New
f  660/713/18  656/712/18  655/711/18  657/649/18
usemtl house6/Polished_Concrete_New
f  659/710/4  653/709/4  656/708/4  660/707/4
usemtl house6/Polished_Concrete_New
f  660/706/6  657/705/6  658/704/6  659/703/6

o entity0_brush83
usemtl house6/Polished_Concrete_New
f  661/714/1  662/715/1  663/716/1  664/717/1
usemtl house6/Polished_Concrete_New
f  665/718/3  663/719/3  662/720/3  666/721/3
usemtl house6/Polished_Concrete_New
f  666/649/53  662/722/53  661/723/53  667/673/53
usemtl house6/Polished_Concrete_New
f  668/673/18  664/723/18  663/722/18  665/649/18
usemtl house6/Polished_Concrete_New
f  667/721/4  661/720/4  664/719/4  668/718/4
usemtl house6/Polished_Concrete_New
f  668/717/6  665/716/6  666/715/6  667/714/6

o entity0_brush84
usemtl house6/Polished_Concrete_New
f  669/724/1  670/725/1  671/726/1  672/727/1
usemtl house6/Polished_Concrete_New
f  673/728/3  671/729/3  670/730/3  674/731/3
usemtl house6/Polished_Concrete_New
f  674/659/53  670/732/53  669/733/53  675/734/53
usemtl house6/Polished_Concrete_New
f  676/734/18  672/733/18  671/732/18  673/659/18
usemtl house6/Polished_Concrete_New
f  675/731/4  669/730/4  672/729/4  676/728/4
usemtl house6/Polished_Concrete_New
f  676/727/6  673/726/6  674/725/6  675/724/6

o entity0_brush85
usemtl house6/Polished_Concrete_New
f  677/75/1  678/735/1  679/736/1  680/637/1
usemtl house6/Polished_Concrete_New
f  681/631/3  679/737/3  678/738/3  682/739/3
usemtl house6/Polished_Concrete_New
f  682/740/53  678/741/53  677/742/53  683/743/53
usemtl house6/Polished_Concrete_New
f  684/743/18  680/742/18  679/741/18  681/740/18
usemtl house6/Polished_Concrete_New
f  683/739/4  677/738/4  680/737/4  684/631/4
usemtl house6/Polished_Concrete_New
f  684/637/6  681/736/6  682/735/6  683/75/6

o entity0_brush86
usemtl house6/Polished_Concrete_New
f  685/744/1  686/745/1  687/746/1  688/747/1
usemtl house6/Polished_Concrete_New
f  689/748/3  687/749/3  686/750/3  690/751/3
usemtl house6/Polished_Concrete_New
f  690/752/53  686/753/53  685/754/53  691/743/53
usemtl house6/Polished_Concrete_New
f  692/743/18  688/754/18  687/753/18  689/752/18
usemtl house6/Polished_Concrete_New
f  691/751/4  685/750/4  688/749/4  692/748/4
usemtl house6/Polished_Concrete_New
f  692/747/6  689/746/6  690/745/6  691/744/6

o entity0_brush87
usemtl house6/Polished_Concrete_New
f  693/755/1  694/756/1  695/757/1  696/758/1
usemtl house6/Polished_Concrete_New
f  697/759/3  695/760/3  694/761/3  698/762/3
usemtl house6/Polished_Concrete_New
f  698/763/53  694/764/53  693/765/53  699/743/53
usemtl house6/Polished_Concrete_New
f  700/743/18  696/765/18  695/764/18  697/763/18
usemtl house6/Polished_Concrete_New
f  699/762/4  693/761/4  696/760/4  700/759/4
usemtl house6/Polished_Concrete_New
f  700/758/6  697/757/6  698/756/6  699/755/6

o entity0_brush88
usemtl house6/Polished_Concrete_New
f  701/766/1  702/767/1  703/768/1  704/769/1
usemtl house6/Polished_Concrete_New
f  705/770/3  703/771/3  702/772/3  706/773/3
usemtl house6/Polished_Concrete_New
f  706/774/53  702/775/53  701/776/53  707/743/53
usemtl house6/Polished_Concrete_New
f  708/743/18  704/776/18  703/775/18  705/774/18
usemtl house6/Polished_Concrete_New
f  707/773/4  701/772/4  704/771/4  708/770/4
usemtl house6/Polished_Concrete_New
f  708/769/6  705/768/6  706/767/6  707/766/6

o entity0_brush89
usemtl house6/Polished_Concrete_New
f  709/777/1  710/778/1  711/779/1  712/76/1
usemtl house6/Polished_Concrete_New
f  713/191/3  711/780/3  710/781/3  714/190/3
usemtl house6/Polished_Concrete_New
f  714/782/53  710/783/53  709/784/53  715/743/53
usemtl house6/Polished_Concrete_New
f  716/743/18  712/784/18  711/783/18  713/782/18
usemtl house6/Polished_Concrete_New
f  715/190/4  709/781/4  712/780/4  716/191/4
usemtl house6/Polished_Concrete_New
f  716/76/6  713/779/6  714/778/6  715/777/6

o entity0_brush90
usemtl house6/Polished_Concrete_New
f  717/785/1  718/786/1  719/787/1  720/788/1
usemtl house6/Polished_Concrete_New
f  721/789/3  719/790/3  718/791/3  722/792/3
usemtl house6/Polished_Concrete_New
f  722/793/53  718/794/53  717/795/53  723/743/53
usemtl house6/Polished_Concrete_New
f  724/743/18  720/795/18  719/794/18  721/793/18
usemtl house6/Polished_Concrete_New
f  723/792/4  717/791/4  720/790/4  724/789/4
usemtl house6/Polished_Concrete_New
f  724/788/6  721/787/6  722/786/6  723/785/6

o entity0_brush91
usemtl house6/Polished_Concrete_New
f  725/796/1  726/797/1  727/798/1  728/799/1
usemtl house6/Polished_Concrete_New
f  729/800/3  727/801/3  726/802/3  730/803/3
usemtl house6/Polished_Concrete_New
f  730/804/53  726/805/53  725/806/53  731/807/53
usemtl house6/Polished_Concrete_New
f  732/807/18  728/806/18  727/805/18  729/804/18
usemtl house6/Polished_Concrete_New
f  731/803/4  725/802/4  728/801/4  732/800/4
usemtl house6/Polished_Concrete_New
f  732/799/6  729/798/6  730/797/6  731/796/6

o entity0_brush92
usemtl house6/Polished_Concrete_New
f  733/808/1  734/809/1  735/810/1  736/811/1
usemtl house6/Polished_Concrete_New
f  737/812/3  735/813/3  734/814/3  738/815/3
usemtl house6/Polished_Concrete_New
f  738/816/53  734/817/53  733/818/53  739/819/53
usemtl house6/Polished_Concrete_New
f  740/819/18  736/818/18  735/817/18  737/816/18
usemtl house6/Polished_Concrete_New
f  739/815/4  733/814/4  736/813/4  740/812/4
usemtl house6/Polished_Concrete_New
f  740/811/6  737/810/6  738/809/6  739/808/6

o entity0_brush93
usemtl house6/Polished_Concrete_New
f  741/820/1  742/821/1  743/822/1  744/823/1
usemtl house6/Polished_Concrete_New
f  745/824/3  743/825/3  742/826/3  746/827/3
usemtl house6/Polished_Concrete_New
f  746/828/53  742/829/53  741/830/53  747/831/53
usemtl house6/Polished_Concrete_New
f  748/831/18  744/830/18  743/829/18  745/828/18
usemtl house6/Polished_Concrete_New
f  747/827/4  741/826/4  744/825/4  748/824/4
usemtl house6/Polished_Concrete_New
f  748/823/6  745/822/6  746/821/6  747/820/6

o entity0_brush94
usemtl house6/Polished_Concrete_New
f  749/832/1  750/185/1  751/186/1  752/833/1
usemtl house6/Polished_Concrete_New
f  753/180/3  751/834/3  750/835/3  754/71/3
usemtl house6/Polished_Concrete_New
f  754/188/53  750/836/53  749/837/53  755/838/53
usemtl house6/Polished_Concrete_New
f  756/838/18  752/837/18  751/836/18  753/188/18
usemtl house6/Polished_Concrete_New
f  755/71/4  749/835/4  752/834/4  756/180/4
usemtl house6/Polished_Concrete_New
f  756/833/6  753/186/6  754/185/6  755/832/6

o entity0_brush95
usemtl house6/Polished_Concrete_New
f  757/839/1  758/840/1  759/841/1  760/842/1
usemtl house6/Polished_Concrete_New
f  761/843/3  759/844/3  758/845/3  762/846/3
usemtl house6/Polished_Concrete_New
f  762/847/53  758/848/53  757/849/53  763/850/53
usemtl house6/Polished_Concrete_New
f  764/850/18  760/849/18  759/848/18  761/847/18
usemtl house6/Polished_Concrete_New
f  763/846/4  757/845/4  760/844/4  764/843/4
usemtl house6/Polished_Concrete_New
f  764/842/6  761/841/6  762/840/6  763/839/6

o entity0_brush96
usemtl house6/Polished_Concrete_New
f  765/851/1  766/852/1  767/853/1  768/854/1
usemtl house6/Polished_Concrete_New
f  769/855/3  767/856/3  766/857/3  770/858/3
usemtl house6/Polished_Concrete_New
f  770/859/53  766/860/53  765/861/53  771/862/53
usemtl house6/Polished_Concrete_New
f  772/862/18  768/861/18  767/860/18  769/859/18
usemtl house6/Polished_Concrete_New
f  771/858/4  765/857/4  768/856/4  772/855/4
usemtl house6/Polished_Concrete_New
f  772/854/6  769/853/6  770/852/6  771/851/6

o entity0_brush97
usemtl house6/Polished_Concrete_New
f  773/863/1  774/864/1  775/865/1  776/866/1
usemtl house6/Polished_Concrete_New
f  777/867/3  775/868/3  774/869/3  778/870/3
usemtl house6/Polished_Concrete_New
f  778/871/53  774/872/53  773/873/53  779/874/53
usemtl house6/Polished_Concrete_New
f  780/874/18  776/873/18  775/872/18  777/871/18
usemtl house6/Polished_Concrete_New
f  779/870/4  773/869/4  776/868/4  780/867/4
usemtl house6/Polished_Concrete_New
f  780/866/6  777/865/6  778/864/6  779/863/6

o entity0_brush98
usemtl house6/Polished_Concrete_New
f  781/185/1  782/875/1  783/876/1  784/186/1
usemtl house6/Polished_Concrete_New
f  785/877/3  783/878/3  782/879/3  786/880/3
usemtl house6/Polished_Concrete_New
f  786/881/53  782/882/53  781/883/53  787/884/53
usemtl house6/Polished_Concrete_New
f  788/884/18  784/883/18  783/882/18  785/881/18
usemtl house6/Polished_Concrete_New
f  787/880/4  781/879/4  784/878/4  788/877/4
usemtl house6/Polished_Concrete_New
f  788/186/6  785/876/6  786/875/6  787/185/6

o entity0_brush99
usemtl house6/Polished_Concrete_New
f  789/74/1  790/885/1  791/217/1  792/60/1
usemtl house6/Polished_Concrete_New
f  793/218/3  791/67/3  790/73/3  794/635/3
usemtl house6/Polished_Concrete_New
f  794/224/53  790/225/53  789/64/53  795/634/53
usemtl house6/Polished_Concrete_New
f  796/634/18  792/64/18  791/225/18  793/224/18
usemtl house6/Polished_Concrete_New
f  795/635/4  789/73/4  792/67/4  796/218/4
usemtl house6/Polished_Concrete_New
f  796/60/6  793/217/6  794/885/6  795/74/6

o entity0_brush100
usemtl house6/Polished_Concrete_New
f  797/886/1  798/670/1  799/681/1  800/887/1
usemtl house6/Polished_Concrete_New
f  800/684/188  799/688/188  801/888/188
usemtl house6/Polished_Concrete_New
f  802/889/3  799/685/3  798/890/3  803/891/3
usemtl house6/Polished_Concrete_New
f  803/892/53  798/688/53  797/684/53  804/888/53
usemtl house6/Polished_Concrete_New
f  801/888/18  799/688/18  802/892/18
usemtl house6/Polished_Concrete_New
f  804/891/4  797/890/4  800/893/4  801/889/4
usemtl house6/Polished_Concrete_New
f  804/886/6  801/894/6  802/681/6  803/670/6

o entity0_brush101
usemtl house6/Polished_Concrete_New
f  805/886/1  806/895/1  807/896/1  808/897/1
usemtl house6/Polished_Concrete_New
f  809/898/189  808/899/189  807/900/189  810/901/189
usemtl house6/Polished_Concrete_New
f  810/673/3  807/902/3  806/903/3  811/676/3
usemtl house6/Polished_Concrete_New
f  811/901/53  806/900/53  805/899/53  812/898/53
usemtl house6/Polished_Concrete_New
f  812/676/4  805/903/4  808/902/4  809/673/4
usemtl house6/Polished_Concrete_New
f  811/895/6  812/886/6  809/904/6  810/905/6

o entity0_brush102
usemtl terrain/mpterrax_0
f  813/420/1  814/906/1  815/372/1  816/402/1
usemtl terrain/mpterrax_0
f  816/400/134  815/362/134  817/907/134
usemtl terrain/mpterrax_0
f  818/379/3  815/370/3  814/908/3  819/377/3
usemtl terrain/mpterrax_0
f  817/907/190  815/362/190  818/378/190
usemtl terrain/mpterrax_0
f  814/362/53  813/400/53  820/907/53
usemtl terrain/mpterrax_0
f  820/432/4  813/908/4  816/370/4  817/909/4
usemtl terrain/mpterrax_0
f  819/378/91  814/362/91  820/907/91
usemtl terrain/mpterrax_0
f  818/372/6  819/424/6  820/420/6  817/910/6

o entity0_brush103
usemtl terrain/mpterrax_0
f  821/425/1  822/420/1  823/402/1  824/411/1
usemtl terrain/mpterrax_0
f  824/407/191  823/400/191  825/416/191
usemtl terrain/mpterrax_0
f  825/416/192  823/400/192  826/907/192
usemtl terrain/mpterrax_0
f  826/909/3  823/370/3  822/908/3  827/377/3
usemtl terrain/mpterrax_0
f  822/400/53  821/407/53  828/416/53
usemtl terrain/mpterrax_0
f  828/432/4  821/908/4  824/370/4  825/421/4
usemtl terrain/mpterrax_0
f  827/907/193  822/400/193  828/416/193
usemtl terrain/mpterrax_0
f  828/425/6  825/413/6  826/910/6  827/419/6

