mtllib bed-simple.mtl
# vertices
v -80 24 -72
v -80 24 72
v -80 32 72
v -80 32 -72
v 72 32 72
v 72 24 72
v 72 24 -72
v 72 32 -72
v -82 14 -71
v -82 14 72
v -82 18 72
v -82 18 -71
v 72 18 72
v 72 14 72
v 72 14 -71
v 72 18 -71
v -80 16 -72
v -80 16 72
v -80 24 72
v -80 24 -72
v 72 24 72
v 72 16 72
v 72 16 -72
v 72 24 -72
v 64 0 64
v 64 0 72
v 64 16 72
v 64 16 64
v 72 16 72
v 72 0 72
v 72 0 64
v 72 16 64
v 64 0 -72
v 64 0 -64
v 64 16 -64
v 64 16 -72
v 72 16 -64
v 72 0 -64
v 72 0 -72
v 72 16 -72
v -80 32 -56
v -80 32 -16
v -80 40 -16
v -80 40 -56
v -48 40 -16
v -48 32 -16
v -48 32 -56
v -48 40 -56
v -80 32 16
v -80 32 56
v -80 40 56
v -80 40 16
v -48 40 56
v -48 32 56
v -48 32 16
v -48 40 16
v -82 18 -71
v -82 18 72
v -82 64 72
v -82 64 -71
v -77 64 72
v -77 18 72
v -77 18 -71
v -77 64 -71
v -80 0 -72
v -80 0 -64
v -80 16 -64
v -80 16 -72
v -72 16 -64
v -72 0 -64
v -72 0 -72
v -72 16 -72
v -80 0 64
v -80 0 72
v -80 16 72
v -80 16 64
v -72 16 72
v -72 0 72
v -72 0 64
v -72 16 64

# texture coordinates
vt -144 48
vt 144 48
vt 144 64
vt -144 64
vt -160 64
vt -160 48
vt 144 144
vt 144 -160
vt -144 -160
vt -144 144
vt -142 28
vt 144 28
vt 144 36
vt -142 36
vt -164 36
vt -164 28
vt 144 -164
vt -142 -164
vt -142 144
vt -144 32
vt 144 32
vt -160 32
vt 128 -0
vt 144 -0
vt 128 32
vt 144 128
vt 128 128
vt 128 144
vt -144 -0
vt -128 -0
vt -128 32
vt -128 144
vt -128 128
vt -144 128
vt -112 64
vt -32 64
vt -32 80
vt -112 80
vt -96 80
vt -160 80
vt -96 64
vt -32 -96
vt -32 -160
vt -112 -160
vt -112 -96
vt 32 64
vt 112 64
vt 112 80
vt 32 80
vt 112 -96
vt 112 -160
vt 32 -160
vt 32 -96
vt -142 128
vt -154 128
vt -164 128
vt -154 36
vt 144 -154
vt -142 -154
vt -160 -0
vt -128 -144
vt -128 -160
vt -144 -144
vt 144 -144
vt 128 -160
vt 128 -144

# normals
vn -1 0 -0
vn 0 0 1
vn -0 -1 -0
vn 0 1 -0
vn 0 0 -1
vn 1 0 0

o entity0_brush0
usemtl urbanq3_misc/pak3_rug1_bs1
f  1/1/1  2/2/1  3/3/1  4/4/1
usemtl urbanq3_misc/pak3_rug1_bs1
f  5/3/2  3/5/2  2/6/2  6/2/2
usemtl urbanq3_misc/pak3_rug1_bs1
f  6/7/3  2/8/3  1/9/3  7/10/3
usemtl urbanq3_misc/pak3_rug1_bs1
f  8/10/4  4/9/4  3/8/4  5/7/4
usemtl urbanq3_misc/pak3_rug1_bs1
f  7/2/5  1/6/5  4/5/5  8/3/5
usemtl urbanq3_misc/pak3_rug1_bs1
f  8/4/6  5/3/6  6/2/6  7/1/6

o entity0_brush1
usemtl urbanq3_misc/WOOD4
f  9/11/1  10/12/1  11/13/1  12/14/1
usemtl urbanq3_misc/WOOD4
f  13/13/2  11/15/2  10/16/2  14/12/2
usemtl urbanq3_misc/WOOD4
f  14/7/3  10/17/3  9/18/3  15/19/3
usemtl urbanq3_misc/WOOD4
f  16/19/4  12/18/4  11/17/4  13/7/4
usemtl urbanq3_misc/WOOD4
f  15/12/5  9/16/5  12/15/5  16/13/5
usemtl urbanq3_misc/WOOD4
f  16/14/6  13/13/6  14/12/6  15/11/6

o entity0_brush2
usemtl urban_objects/bk_sidepanel
f  17/20/1  18/21/1  19/2/1  20/1/1
usemtl urban_objects/bk_sidepanel
f  21/2/2  19/6/2  18/22/2  22/21/2
usemtl urban_objects/bk_sidepanel
f  22/7/3  18/8/3  17/9/3  23/10/3
usemtl urban_objects/bk_sidepanel
f  24/10/4  20/9/4  19/8/4  21/7/4
usemtl urban_objects/bk_sidepanel
f  23/21/5  17/22/5  20/6/5  24/2/5
usemtl urban_objects/bk_sidepanel
f  24/1/6  21/2/6  22/21/6  23/20/6

o entity0_brush3
usemtl urbanq3_misc/WOOD4
f  25/23/1  26/24/1  27/21/1  28/25/1
usemtl urbanq3_misc/WOOD4
f  29/21/2  27/25/2  26/23/2  30/24/2
usemtl urbanq3_misc/WOOD4
f  30/7/3  26/26/3  25/27/3  31/28/3
usemtl urbanq3_misc/WOOD4
f  32/28/4  28/27/4  27/26/4  29/7/4
usemtl urbanq3_misc/WOOD4
f  31/24/5  25/23/5  28/25/5  32/21/5
usemtl urbanq3_misc/WOOD4
f  32/25/6  29/21/6  30/24/6  31/23/6

o entity0_brush4
usemtl urbanq3_misc/WOOD4
f  33/29/1  34/30/1  35/31/1  36/20/1
usemtl urbanq3_misc/WOOD4
f  37/21/2  35/25/2  34/23/2  38/24/2
usemtl urbanq3_misc/WOOD4
f  38/32/3  34/33/3  33/34/3  39/10/3
usemtl urbanq3_misc/WOOD4
f  40/10/4  36/34/4  35/33/4  37/32/4
usemtl urbanq3_misc/WOOD4
f  39/24/5  33/23/5  36/25/5  40/21/5
usemtl urbanq3_misc/WOOD4
f  40/20/6  37/31/6  38/30/6  39/29/6

o entity0_brush5
usemtl urbanq3_misc/pak3_rug1_bs1
f  41/35/1  42/36/1  43/37/1  44/38/1
usemtl urbanq3_misc/pak3_rug1_bs1
f  45/39/2  43/40/2  42/5/2  46/41/2
usemtl urbanq3_misc/pak3_rug1_bs1
f  46/42/3  42/43/3  41/44/3  47/45/3
usemtl urbanq3_misc/pak3_rug1_bs1
f  48/45/4  44/44/4  43/43/4  45/42/4
usemtl urbanq3_misc/pak3_rug1_bs1
f  47/41/5  41/5/5  44/40/5  48/39/5
usemtl urbanq3_misc/pak3_rug1_bs1
f  48/38/6  45/37/6  46/36/6  47/35/6

o entity0_brush6
usemtl urbanq3_misc/pak3_rug1_bs1
f  49/46/1  50/47/1  51/48/1  52/49/1
usemtl urbanq3_misc/pak3_rug1_bs1
f  53/39/2  51/40/2  50/5/2  54/41/2
usemtl urbanq3_misc/pak3_rug1_bs1
f  54/50/3  50/51/3  49/52/3  55/53/3
usemtl urbanq3_misc/pak3_rug1_bs1
f  56/53/4  52/52/4  51/51/4  53/50/4
usemtl urbanq3_misc/pak3_rug1_bs1
f  55/41/5  49/5/5  52/40/5  56/39/5
usemtl urbanq3_misc/pak3_rug1_bs1
f  56/49/6  53/48/6  54/47/6  55/46/6

o entity0_brush7
usemtl urbanq3_misc/WOOD4
f  57/14/1  58/13/1  59/26/1  60/54/1
usemtl urbanq3_misc/WOOD4
f  61/55/2  59/56/2  58/15/2  62/57/2
usemtl urbanq3_misc/WOOD4
f  62/58/3  58/17/3  57/18/3  63/59/3
usemtl urbanq3_misc/WOOD4
f  64/59/4  60/18/4  59/17/4  61/58/4
usemtl urbanq3_misc/WOOD4
f  63/57/5  57/15/5  60/56/5  64/55/5
usemtl urbanq3_misc/WOOD4
f  64/54/6  61/26/6  62/13/6  63/14/6

o entity0_brush8
usemtl urbanq3_misc/WOOD4
f  65/29/1  66/30/1  67/31/1  68/20/1
usemtl urbanq3_misc/WOOD4
f  69/20/2  67/22/2  66/60/2  70/29/2
usemtl urbanq3_misc/WOOD4
f  70/61/3  66/62/3  65/9/3  71/63/3
usemtl urbanq3_misc/WOOD4
f  72/63/4  68/9/4  67/62/4  69/61/4
usemtl urbanq3_misc/WOOD4
f  71/29/5  65/60/5  68/22/5  72/20/5
usemtl urbanq3_misc/WOOD4
f  72/20/6  69/31/6  70/30/6  71/29/6

o entity0_brush9
usemtl urbanq3_misc/WOOD4
f  73/23/1  74/24/1  75/21/1  76/25/1
usemtl urbanq3_misc/WOOD4
f  77/20/2  75/22/2  74/60/2  78/29/2
usemtl urbanq3_misc/WOOD4
f  78/64/3  74/8/3  73/65/3  79/66/3
usemtl urbanq3_misc/WOOD4
f  80/66/4  76/65/4  75/8/4  77/64/4
usemtl urbanq3_misc/WOOD4
f  79/29/5  73/60/5  76/22/5  80/20/5
usemtl urbanq3_misc/WOOD4
f  80/25/6  77/21/6  78/24/6  79/23/6

