mtllib boxes-a.mtl
# vertices
v -52.67523156103789 0 -20.259206008286128
v -55.25121642664578 0 22.687567772401962
v -55.251161060541456 43 22.68756151735225
v -52.675176833017765 43 -20.259201625206494
v -12.327974714484299 43 25.261877652420708
v -12.328040101315345 0 25.261883306477774
v -9.752045801562787 0 -17.685057840586527
v -9.751981052817428 43 -17.685052856553284
v 7.3019999999994525 0 23.70100000000093
v 6.700999999999766 0 78.69800000000214
v 6.700999999999766 55 78.69800000000214
v 7.301999999999444 55 23.701000000000036
v 61.69921541233998 55 79.29901328186861
v 61.699288142395154 0 79.29901407665311
v 62.30110400534689 0 24.30201206420703
v 62.30103127529219 55 24.302011269436093
v 2.26505952831576 43 12.54311957331447
v -5.558107056632275 43 -29.727239937605635
v -5.558014495049974 0 -29.72725706728852
v 2.2651475902722806 0 12.54307813112883
v 36.72600947382671 0 -37.55244656558443
v 36.72608207599944 43 -37.5524600015283
v 44.54906873182699 0 4.717335838782674
v 44.54914583322155 43 4.717346713183928
v 11.052944566520637 0 -88.86249741370193
v 7.125008348906931 0 -46.0540909901265
v 7.125008348906931 43 -46.0540909901265
v 11.052945644038733 43 -88.86250915697295
v 49.945999999996275 43 -42.12500000000182
v 49.946000000000055 0 -42.12500000000156
v 53.873958964008956 0 -84.93365432396622
v 53.87396004152106 43 -84.93366606723748
v -30.61044462555583 0 -86.74454823484848
v -57.74014443699889 0 -53.3939925627019
v -57.740091133182865 43 -53.39394385029593
v -30.610388701333328 43 -86.74450274371131
v -24.386054704737035 43 -26.261964007433562
v -24.386102537653905 0 -26.262008269511558
v 2.7431985814480058 0 -59.61327879278728
v 2.7432490346945997 43 -59.61323775197525
v -26.20823368769834 98 14.076691991111147
v -35.080000978197035 98 -40.203346044978325
v -35.07999760643113 43 -40.20334659608937
v -26.208230315933015 43 14.076691439995606
v 19.201658669528115 43 -49.07561731238093
v 19.201660885900544 98 -49.0756176746445
v 28.073459701950924 43 5.204415208627324
v 28.073461918334083 98 5.2044148463667455

# texture coordinates
vt -0.0016482174 0.9999895
vt -0.9984739 0.9999895
vt -0.99847376 1.9999895
vt -0.0016483068 1.9999895
vt -0.001239866 1.999999
vt -0.99888074 1.999999
vt -0.99888206 0.99999905
vt -0.0012413859 0.99999905
vt -1.541005 -4.1577334
vt -6.906402 -3.8359442
vt -6.584404 1.5324028
vt -1.2190057 1.2106342
vt -9.9509954e-05 0.0006543398
vt -0.9998916 0.0006532967
vt -0.9999004 -0.9996911
vt -0.000108242035 -0.99969393
vt 0.0013747066 0.99999905
vt -1.0015134 0.99999905
vt -1.0015122 1.999999
vt 0.0013762116 1.999999
vt -0.0009226203 1.9999466
vt -0.99914604 1.9999466
vt -0.99914616 0.9999466
vt -0.0009225011 0.9999466
vt -1.0002141 -0
vt -1.9997935 -0
vt -1.9997935 0.9999988
vt -1.0002141 0.9999988
vt 1.0000637 1.0000442
vt 1.2084842e-05 1.0000442
vt 1.2084842e-05 5.3048134e-05
vt 1.000065 5.3048134e-05
vt 7.712411 -10.912375
vt 0.837625 -10.837249
vt 0.91275 -3.962624
vt 7.787638 -4.0377502
vt 1.0004599 -1.0068346
vt 0.010008156 -1.0068415
vt 0.010014951 -1.9972699
vt 1.000452 -1.9972631
vt 0.9999391 0.9999995
vt 0.00016841292 0.9999995
vt 0.00016841292 1.9999986
vt 0.9999378 1.9999986
vt -0.9991995 1.0000191
vt -2.0007854 1.0000191
vt -2.0007854 1.9103289e-05
vt -0.9991995 1.9103289e-05
vt -0.9983107 1.9999714
vt -0.0014613271 1.9999714
vt -0.0014609694 0.9999714
vt -0.9983097 0.9999714
vt 1.0014718 0.99999905
vt -0.0018835664 0.99999905
vt -0.0018857569 1.999999
vt 1.0014734 1.999999
vt 5.5686336 -1.5896593
vt 0.28314346 -2.5678773
vt -0.6947518 2.7159147
vt 4.590751 3.6940637
vt 0.9994527 -0.0006234646
vt -0.00053383387 -0.0006098151
vt -0.00053591724 -1.0002681
vt 0.99945056 -1.0002687
vt 0.99876964 1.999999
vt 0.0009098537 1.999999
vt 0.00091193244 0.99999905
vt 0.99876785 0.99999905
vt -0.0014466643 1.9999647
vt -0.99827874 1.9999647
vt -0.9982785 0.9999647
vt -0.001447022 0.9999647
vt 1.9976919 0.99996984
vt 1.0020865 0.99996984
vt 1.0020865 1.999971
vt 1.9976921 1.999971
vt 0.9989015 1.0000668
vt 0.0010679066 1.0000668
vt 0.0010679066 6.6787004e-05
vt 0.9989015 6.6787004e-05
vt 6.24325 4.265628
vt 0.8906261 4.7567644
vt 1.381618 10.107815
vt 6.734245 9.61671
vt 1.000581 2.0002868
vt 0.00041944534 2.0002897
vt 0.00041077286 1.0004257
vt 1.0005722 1.000417
vt 1.0015389 0.99999905
vt -0.0015230179 0.99999905
vt -0.0015229881 1.999999
vt 1.0015389 1.999999
vt 0.9976704 1.9999609
vt 0.0020551085 1.9999609
vt 0.0020551085 0.9999609
vt 0.9976702 0.9999609
vt 2.0009139 0.99999905
vt 0.9991412 0.99999905
vt 0.9991398 1.999999
vt 2.0009124 1.999999
vt 1.0018153 -1.3256483
vt 1.9976645 -1.3256483
vt 1.9976661 -0.32564834
vt 1.0018167 -0.32564834
vt -3.0482628 2.282754
vt -7.217518 5.674252
vt -3.8263056 9.843071
vt 0.34289983 6.4516625
vt 1.0000741 0.99989593
vt 1.0000646 1.9996628
vt 0.00037954748 1.9996703
vt 0.0003819391 0.9998858
vt 0.0021428242 -0.32544637
vt 0.99798083 -0.32544637
vt 0.99797916 -1.3254402
vt 0.0021413192 -1.3254402
vt 0.9995202 1.999999
vt 0.0007609725 1.999999
vt 0.0007622838 0.99999905
vt 0.9995214 0.99999905
vt -0.9999434 1.9999837
vt -4.1365623e-05 1.9999837
vt -4.1365623e-05 0.9999838
vt -0.9999434 0.9999838
vt -0.00022625923 0.99999905
vt -0.99991107 0.99999905
vt -0.9999111 1.9999989
vt -0.00022622943 1.9999989
vt -0.00026744604 -0.9997161
vt -1.0002904 -0.99971175
vt -1.0002818 0.00027310848
vt -0.00025945902 0.00026881695
vt -0.00021407008 3.1590462e-06
vt -1.0001864 1.0430813e-05
vt -1.0001981 -0.9999347
vt -0.00022503734 -0.99994195
vt -0.000106573105 1.9999809
vt -1.000046 1.9999809
vt -1.000046 1.0000228
vt -0.000106573105 1.0000228
vt 0.0005132556 1.9999963
vt -1.0005972 1.9999963
vt -1.0005972 0.99999416
vt 0.0005132556 0.99999416

# normals
vn -0.9982059868999292 1.2765643388133013e-06 -0.059873263778657294
vn -0.05986737950967662 2.2228962460895046e-07 0.9982063398268892
vn -0 -1 -0
vn 0 1 -0
vn 0.05986348813432363 2.5558430559454122e-08 -0.9982065732043599
vn 0.9982059877395192 -1.5100232363768212e-06 0.05987324977559298
vn -0.9999402961890665 0 -0.010927216357424701
vn -0.01092721635742879 0 0.9999402961890665
vn 0.01092701769726585 0 -0.9999402983599789
vn 0.9999401340001848 1.3224435836838123e-06 0.010942047977582624
vn -0.9833014821791722 -2.1891458178897247e-06 0.18198405188216474
vn -0.18197267400772552 0 -0.9833035878682017
vn 0.1819855312570746 -5.749803313174133e-07 0.9833012083856858
vn 0.9833014843414885 -1.71709182975259e-06 -0.1819840402037419
vn -0.9958167968752216 0 -0.09137235392159827
vn -0.09137235392159875 0 0.9958167968752214
vn 0.09136658891178098 -2.7424652123688964e-07 -0.9958173258336844
vn 0.9958167968752216 0 0.09137235392159827
vn -0.7757453333301583 1.6765107032254767e-06 -0.6310460980100194
vn -0.6310383795652592 -9.65575293959725e-08 0.7757516119968058
vn 0.6310329133534364 0 -0.7757560584775826
vn 0.775756494366285 -1.5125001309547814e-06 0.6310323774944075
vn -0.9869047608455562 -6.211833207538978e-08 0.16130403907023452
vn -0.16130827013204257 0 -0.9869040692929621
vn 0.16130827013204257 0 0.9869040692929621
vn 0.9869046605743579 -4.083254304473255e-08 -0.16130465255723356

o entity0_brush0
usemtl toxic_facility_wood/crate005
f  1/1/1  2/2/1  3/3/1  4/4/1
usemtl toxic_facility_wood/crate005
f  5/5/2  3/6/2  2/7/2  6/8/2
usemtl common/caulk
f  6/9/3  2/10/3  1/11/3  7/12/3
usemtl toxic_facility_wood/crate005
f  8/13/4  4/14/4  3/15/4  5/16/4
usemtl toxic_facility_wood/crate005
f  7/17/5  1/18/5  4/19/5  8/20/5
usemtl toxic_facility_wood/crate005
f  8/21/6  5/22/6  6/23/6  7/24/6

o entity0_brush1
usemtl toxic_facility_wood/crate005
f  9/25/7  10/26/7  11/27/7  12/28/7
usemtl toxic_facility_wood/crate005
f  13/29/8  11/30/8  10/31/8  14/32/8
usemtl common/caulk
f  14/33/3  10/34/3  9/35/3  15/36/3
usemtl toxic_facility_wood/crate005
f  16/37/4  12/38/4  11/39/4  13/40/4
usemtl toxic_facility_wood/crate005
f  15/41/9  9/42/9  12/43/9  16/44/9
usemtl toxic_facility_wood/crate005
f  16/45/10  13/46/10  14/47/10  15/48/10

o entity0_brush2
usemtl toxic_facility_wood/crate005
f  17/49/11  18/50/11  19/51/11  20/52/11
usemtl toxic_facility_wood/crate005
f  21/53/12  19/54/12  18/55/12  22/56/12
usemtl common/caulk
f  23/57/3  20/58/3  19/59/3  21/60/3
usemtl toxic_facility_wood/crate005
f  22/61/4  18/62/4  17/63/4  24/64/4
usemtl toxic_facility_wood/crate005
f  24/65/13  17/66/13  20/67/13  23/68/13
usemtl toxic_facility_wood/crate005
f  22/69/14  24/70/14  23/71/14  21/72/14

o entity0_brush3
usemtl toxic_facility_wood/crate005
f  25/73/15  26/74/15  27/75/15  28/76/15
usemtl toxic_facility_wood/crate005
f  29/77/16  27/78/16  26/79/16  30/80/16
usemtl common/caulk
f  30/81/3  26/82/3  25/83/3  31/84/3
usemtl toxic_facility_wood/crate005
f  32/85/4  28/86/4  27/87/4  29/88/4
usemtl toxic_facility_wood/crate005
f  31/89/17  25/90/17  28/91/17  32/92/17
usemtl toxic_facility_wood/crate005
f  32/93/18  29/94/18  30/95/18  31/96/18

o entity0_brush4
usemtl toxic_facility_wood/crate005
f  33/97/19  34/98/19  35/99/19  36/100/19
usemtl toxic_facility_wood/crate005
f  37/101/20  35/102/20  34/103/20  38/104/20
usemtl common/caulk
f  38/105/3  34/106/3  33/107/3  39/108/3
usemtl toxic_facility_wood/crate005
f  40/109/4  36/110/4  35/111/4  37/112/4
usemtl toxic_facility_wood/crate005
f  39/113/21  33/114/21  36/115/21  40/116/21
usemtl toxic_facility_wood/crate005
f  40/117/22  37/118/22  38/119/22  39/120/22

o entity0_brush5
usemtl toxic_facility_wood/crate005
f  41/121/23  42/122/23  43/123/23  44/124/23
usemtl toxic_facility_wood/crate005
f  45/125/24  43/126/24  42/127/24  46/128/24
usemtl toxic_facility_wood/crate005
f  47/129/3  44/130/3  43/131/3  45/132/3
usemtl toxic_facility_wood/crate005
f  46/133/4  42/134/4  41/135/4  48/136/4
usemtl toxic_facility_wood/crate005
f  48/137/25  41/138/25  44/139/25  47/140/25
usemtl toxic_facility_wood/crate005
f  46/141/26  48/142/26  47/143/26  45/144/26

