mtllib chair.mtl
# vertices
v 24.26599999999962 31 -0.9829999999965366
v -6.905964028209776 31 31.453597442651493
v -6.905949495274339 60 31.453582320121004
v 24.266000000000403 60 -0.9829999999996808
v -4.7422428112404305 60 33.532887243538426
v -4.742257343935098 31 33.532902366302494
v 26.42899999999814 31 1.0960000000020358
v 26.429000000003725 60 1.0960000000013679
v 20.77524465762326 32 1.2067048531098408
v -4.865869578638879 32 27.887945417699935
v -4.8658842125048025 59 27.887960645185508
v 20.775216529576777 59 1.2067341221628638
v -4.1409126278958865 59 28.584663042223838
v -4.1409061827441676 32 28.58463994532674
v 21.50002362773315 32 1.9031772992481715
v 21.50000368876499 59 1.9032144375523785
v 17.05932376851706 31 -7.913892419255717
v 14.283926301586474 31 -5.0259247114377095
v 14.283917989535933 43 -5.025924269432614
v 17.05933735237463 43 -7.913914761255906
v 17.169068867198803 43 -2.253475073721347
v 17.169085378795653 31 -2.2534676364759196
v 19.944246027244702 31 -5.141438067182557
v 19.94425141089232 43 -5.141468289708428
v -0.24513748430035776 0 -24.543679181064363
v -3.0201071499432146 0 -21.65615624538259
v -3.020122710151004 28 -21.65616275270238
v -0.24510067935062674 28 -24.543740177481787
v -0.13495312985469354 28 -18.883462057267025
v -0.13492021077443095 0 -18.883438867756663
v 2.639812591952286 0 -21.770964060889145
v 2.6398320363659877 28 -21.77104174246051
v 4.797831716285145 31 -19.69216169236097
v 2.0256789216777173 31 -16.807308502298785
v 2.025679915637861 43 -16.80730754727018
v 4.79783271024451 43 -19.692160737331577
v 4.91229733532964 43 -14.033753478852304
v 4.912309636229933 31 -14.033741659755243
v 7.6844688670270465 31 -16.918588665721106
v 7.684456566119479 43 -16.91860048482704
v 23.54813867142002 0 -1.6705799020055565
v 20.77672842737047 0 1.2132294847251615
v 20.776752744278774 28 1.2132725202680739
v 23.54811228459772 28 -1.6704841063554259
v 23.651080214120157 28 3.975321099311259
v 23.651087083615096 0 3.9753080319474283
v 26.422237288869486 0 1.0915999541396766
v 26.422179719098494 28 1.0916657811212644
v -11.35399999999936 31 21.64999999999418
v -14.125000000001817 31 24.534000000003285
v -14.125000000001817 43 24.534000000003285
v -11.353999999999115 43 21.65000000000068
v -11.246080261611496 43 27.30111703010698
v -11.246071293943572 31 27.301125649515583
v -8.474299581512904 31 24.4169079930774
v -8.47430855067796 43 24.416899375224602
v -28.65854932095681 43 5.019472100662824
v -31.426377585975917 43 7.899643262635648
v -31.42637901681364 46 7.899644232018348
v -28.65854958051424 46 5.019471851220182
v -6.906730434457131 46 31.46271242224975
v -6.906730173028791 43 31.462710329080103
v -4.139090392629669 43 28.58275714624561
v -4.139089482778218 46 28.582758020609617
v -0.24959325006784638 43 -24.54257011537993
v -3.0208572229324697 43 -21.65882379421387
v -3.020857482491346 46 -21.65882404365085
v -0.24959350963089788 46 -24.542570364813347
v 21.49870371047291 46 1.9045592786023917
v 21.498702800627452 43 1.9045584042381485
v 24.2699777012137 43 -0.9791774153495361
v 24.269978611057013 46 -0.9791765409827349
v -0.2489999999961583 28 -24.54200000000128
v -31.42899999999463 28 7.903999999996811
v -31.42899999999463 31 7.903999999996811
v -0.24899999999854572 31 -24.541999999998808
v -4.750999999996566 31 33.541999999994005
v -4.75099999999599 28 33.541999999995625
v 26.429000000002475 28 1.0959999999975274
v 26.429000000000087 31 1.0960000000013679
v -0.136000000002241 31 -18.885999999994965
v -25.773999999997613 31 7.791999999999463
v -25.773999999997613 32 7.791999999999463
v -0.1359999999990542 32 -18.88599999999912
v -4.142999999996391 32 28.579000000001543
v -4.142999999998672 31 28.578999999998587
v 21.494999999996285 31 1.9010000000037586
v 21.49500000000262 32 1.901000000001659
v -4.862229840571672 0 27.888059183322184
v -7.630915692972849 0 30.768919032097983
v -7.6308737249712 28 30.768876772637064
v -4.862226471054269 28 27.888057086176982
v -4.753722596964508 28 33.53386294939628
v -4.75376681596312 0 33.53390304561732
v -1.9853436492696286 0 30.653032772527496
v -1.9853380268832552 28 30.653032840618835
v -28.6576665460816 0 5.021267182986776
v -31.425797584231987 0 7.901674115217247
v -31.42576766145342 28 7.901620280112975
v -28.657682106288696 28 5.021260675671831
v -28.541408370729187 28 10.673533611334278
v -28.541440066400547 0 10.673585742663867
v -25.77331316561352 0 7.793183495467378
v -25.77332695294899 28 7.793178691921639
v -23.61016982059664 31 9.872013134481676
v -26.379050867722036 31 12.753200116227688
v -26.379040192535705 43 12.753180800872773
v -23.61017572945133 43 9.87201107582037
v -23.49313054869708 43 15.526349950276199
v -23.493133023472122 31 15.526377145690773
v -20.72449744375206 31 12.6451970265858
v -20.724511551932665 43 12.645187088222883

# texture coordinates
vt 0.25391343 -0.37890768
vt 0.42960304 -0.37890768
vt 0.42960298 -0.49218893
vt 0.25391343 -0.49218893
vt 0.6558019 1.1602477
vt 0.64407533 1.1602477
vt 0.6440753 1.0470167
vt 0.65580183 1.0470167
vt 0.40721774 -4.1916127
vt 0.1367544 -3.9316998
vt 4.03325 0.122875
vt 4.303625 -0.137
vt -0.23011732 0.24965781
vt -0.23012292 0.23793495
vt -0.054380253 0.2378648
vt -0.0543757 0.24959049
vt 0.65471005 1.0470889
vt 0.64301 1.0470889
vt 0.64301 1.1601121
vt 0.65471005 1.1601121
vt 0.25393164 -0.4921883
vt 0.42962244 -0.4921883
vt 0.42962253 -0.37890702
vt 0.25393164 -0.37890702
vt 0.5546952 -0.27343607
vt 0.84372663 -0.27343607
vt 0.84372675 -0.48437357
vt 0.5546955 -0.48437357
vt -1.0455279 0.17528343
vt -1.0455279 0.16742504
vt -0.83459044 0.1674252
vt -0.83459044 0.1752835
vt -0.5176133 -3.57308
vt -0.6082337 -3.4859931
vt 2.5969055 -0.1508381
vt 2.6875029 -0.23789716
vt 0.5623238 0.5866298
vt 0.56231993 0.578775
vt 0.85154986 0.57862186
vt 0.85155404 0.58647895
vt -0.8284669 1.1810528
vt -0.8284669 1.1731954
vt -1.0394044 1.1731951
vt -1.0394044 1.1810527
vt -0.2379018 7.375
vt -3.573083 7.375
vt -3.57308 4
vt -0.23789716 4
vt -0.07046142 -0.98828125
vt -0.054816723 -0.98828125
vt -0.05481672 -1.0351562
vt -0.07046154 -1.0351562
vt 0.7016054 0.73920345
vt 0.68602496 0.73920345
vt 0.686025 0.6924924
vt 0.70160544 0.6924924
vt 2.1461356 0.28168344
vt 1.7854908 0.6282406
vt 2.1324155 0.98923653
vt 2.4930308 0.64267975
vt 2.4930315 0.64268357
vt 2.1324172 0.98923934
vt 1.7854898 0.6282405
vt 2.1461337 0.2816844
vt 0.70070815 0.6903342
vt 0.6850722 0.6903342
vt 0.68507224 0.73720664
vt 0.70070815 0.73720664
vt -0.07071227 -1.035142
vt -0.05506807 -1.035142
vt -0.055068027 -0.98826694
vt -0.070712104 -0.98826694
vt -0.070456445 -0.80859375
vt -0.054815486 -0.80859375
vt -0.054815523 -0.91796875
vt -0.07045677 -0.91796875
vt 0.7036441 0.70688224
vt 0.68800515 0.70688224
vt 0.6880052 0.59750724
vt 0.7036443 0.59750724
vt -0.016865026 2.3604298
vt -0.37751338 2.7070196
vt -0.030642185 3.0679598
vt 0.3299766 2.7213705
vt 0.329979 2.7213802
vt -0.030637585 3.0679674
vt -0.37751535 2.7070203
vt -0.01686914 2.3604329
vt 0.70281625 0.6289077
vt 0.68718106 0.6289077
vt 0.68718123 0.7382827
vt 0.70281637 0.7382827
vt -0.0703346 -0.91796875
vt -0.05469446 -0.91796875
vt -0.054694332 -0.80859375
vt -0.07033418 -0.80859375
vt -0.07053357 -0.98828125
vt -0.05490701 -0.98828125
vt -0.054907 -1.0351562
vt -0.070533566 -1.0351562
vt 0.7032345 0.7393757
vt 0.68759066 0.7393757
vt 0.68759066 0.6925034
vt 0.7032346 0.6925034
vt 0.6140387 1.7542177
vt 0.25320986 2.1009135
vt 0.59972894 2.4615202
vt 0.9605586 2.1148236
vt 0.96055704 2.114825
vt 0.59972906 2.4615202
vt 0.25320998 2.1009135
vt 0.61403716 1.7542192
vt 0.7033696 0.69231725
vt 0.6876655 0.69231725
vt 0.6876656 0.73936963
vt 0.70336956 0.73936963
vt -0.0703616 -1.035142
vt -0.05473779 -1.035142
vt -0.054737724 -0.98826694
vt -0.07036153 -0.98826694
vt -0.07026108 -0.80859375
vt -0.054641537 -0.80859375
vt -0.054641306 -0.91796875
vt -0.07026057 -0.91796875
vt 0.70430183 0.7068216
vt 0.68872285 0.7068216
vt 0.6887227 0.59746784
vt 0.70430183 0.59746784
vt 2.9563859 -0.4969135
vt 2.597091 -0.15165369
vt 2.9435174 0.20882249
vt 3.3027797 -0.13645
vt 3.3027725 -0.13645822
vt 2.943514 0.20881051
vt 2.597094 -0.15165907
vt 2.9563851 -0.49691513
vt 0.702222 0.62890506
vt 0.6866447 0.62890506
vt 0.68664455 0.73828006
vt 0.7022217 0.73828006
vt -0.07022087 -0.91796875
vt -0.054602675 -0.91796875
vt -0.054602746 -0.80859375
vt -0.07022123 -0.80859375
vt -0.07023614 -0.98828125
vt -0.054613724 -0.98828125
vt -0.054613724 -1.0351562
vt -0.07023614 -1.0351562
vt 0.70253974 0.7394462
vt 0.68693703 0.7394462
vt 0.68693703 0.6925606
vt 0.7025398 0.6925606
vt -1.4057589 -3.4126408
vt -1.765625 -3.06675
vt -1.41925 -2.70625
vt -1.0592874 -3.0521135
vt -1.0592886 -3.0521123
vt -1.40576 -3.4126396
vt 0.701251 0.6924909
vt 0.68564504 0.6924909
vt 0.68564504 0.7393581
vt 0.7012509 0.7393581
vt -0.070571154 -1.0351562
vt -0.054949075 -1.0351562
vt -0.05494903 -0.98828125
vt -0.07057111 -0.98828125
vt -0.23488338 -1.0351562
vt -0.21928284 -1.0351562
vt -0.21928282 -1.046875
vt -0.23488338 -1.046875
vt 0.7249715 0.7503311
vt 0.5920795 0.7503311
vt 0.5920795 0.73861104
vt 0.7249715 0.73861104
vt 0.2623705 0.20326932
vt 0.2621569 0.07040437
vt 0.24654987 0.07042952
vt 0.24676459 0.20329452
vt 0.253717 0.19573404
vt 0.25365007 0.06287492
vt 0.26925668 0.062867135
vt 0.26932248 0.19572619
vt 0.6847096 0.7379594
vt 0.55181867 0.7379594
vt 0.55181867 0.74967766
vt 0.6847096 0.74967766
vt -3.5728447 5.75
vt -3.9328392 5.75
vt -3.9328387 5.375
vt -3.5728447 5.375
vt -0.23255377 -1.0351562
vt -0.21694085 -1.0351562
vt -0.21694085 -1.046875
vt -0.23255377 -1.046875
vt 0.7367607 0.80015767
vt 0.60403466 0.79968476
vt 0.60411495 0.7879814
vt 0.73684096 0.7884543
vt 0.2695742 0.19517735
vt 0.26950452 0.06230642
vt 0.2540188 0.062314615
vt 0.2540885 0.1951856
vt 0.25406688 0.19508025
vt 0.25399834 0.062246293
vt 0.26962134 0.0622383
vt 0.2696899 0.19507219
vt 0.6798254 0.738028
vt 0.5469298 0.738028
vt 0.5469298 0.7497469
vt 0.6798254 0.7497469
vt 0.122397065 5.75
vt -0.2380699 5.75
vt -0.2380698 5.375
vt 0.12239718 5.375
vt -0.20654953 -0.9250026
vt -0.03147112 -0.92395544
vt -0.031336866 -0.93562955
vt -0.20641527 -0.9366767
vt 0.6512269 1.0308188
vt 0.50665414 1.0309913
vt 0.5066272 1.0192786
vt 0.6512 1.0191061
vt 0.4290437 0.20771196
vt 0.42903858 0.06319635
vt 0.25321892 0.06319935
vt 0.25322402 0.20771495
vt 0.25385523 0.20716575
vt 0.25378343 0.0625973
vt 0.42960402 0.0625132
vt 0.42967582 0.20708166
vt 0.66260695 1.0508827
vt 0.5180224 1.050714
vt 0.5179961 1.0624291
vt 0.66258067 1.0625978
vt 0.22630942 -0.9234218
vt 0.40136617 -0.9244788
vt 0.40150166 -0.91280556
vt 0.22644493 -0.9117485
vt 0.5622568 -0.8828125
vt 0.85125256 -0.8828125
vt 0.85125256 -0.890625
vt 0.5622568 -0.890625
vt 0.32136852 1.1767259
vt 0.08717251 1.1759266
vt 0.08722377 1.1681218
vt 0.32141978 1.168921
vt -0.517875 -3.572375
vt -3.22175 -0.974
vt -0.017 2.36075
vt 2.686875 -0.237625
vt 0.5546423 0.28925037
vt 0.5545291 0.054818004
vt 0.8436656 0.054673113
vt 0.84377885 0.28910547
vt 0.40934837 0.37759358
vt 0.17786819 0.37501776
vt 0.1777029 0.38272813
vt 0.40918308 0.38530394
vt -0.237625 4
vt -3.572375 4
vt -3.572375 3.875
vt -0.237625 3.875
vt -0.07030791 -0.80859375
vt -0.054703206 -0.80859375
vt -0.05470343 -0.91796875
vt -0.07030791 -0.91796875
vt 0.7019947 0.7381969
vt 0.68640083 0.7381969
vt 0.6864006 0.6288113
vt 0.7019945 0.6288113
vt -0.5942209 -4.1917377
vt -0.95386446 -3.8461149
vt -0.6077787 -3.4860075
vt -0.24816796 -3.831629
vt -0.24816725 -3.831629
vt -0.6077783 -3.4860072
vt -0.9538592 -3.8461096
vt -0.59421533 -4.191733
vt 0.70240396 0.6287281
vt 0.6868115 0.6287281
vt 0.6868115 0.73810124
vt 0.70240396 0.73810124
vt -0.07040328 -0.91796875
vt -0.05479914 -0.91796875
vt -0.05479893 -0.80859375
vt -0.07040328 -0.80859375
vt -0.07028259 -0.80859375
vt -0.054681305 -0.80859375
vt -0.054681595 -0.91796875
vt -0.07028263 -0.91796875
vt 0.7023424 0.7381943
vt 0.6867093 0.7381943
vt 0.6867091 0.6288087
vt 0.7023422 0.6288087
vt -3.5676801 -1.3341982
vt -3.9282248 -0.9877093
vt -3.5822084 -0.6276584
vt -3.2216642 -0.9741479
vt -3.2216659 -0.9741473
vt -3.5822103 -0.6276576
vt -3.928221 -0.98770255
vt -3.567676 -1.3341917
vt 0.7019294 0.6290033
vt 0.6862962 0.6290033
vt 0.6862961 0.7383783
vt 0.70192933 0.7383783
vt -0.07022201 -0.91796875
vt -0.054621074 -0.91796875
vt -0.05462079 -0.80859375
vt -0.07022199 -0.80859375
vt -0.070446745 -0.98828125
vt -0.054839417 -0.98828125
vt -0.05483952 -1.0351562
vt -0.07044676 -1.0351562
vt 0.70721424 0.7392564
vt 0.69157046 0.7392564
vt 0.6915704 0.6923814
vt 0.70721424 0.6923814
vt -1.9366418 -1.9407971
vt -2.2973814 -1.5941501
vt -1.9512714 -1.2340016
vt -1.5905622 -1.5806496
vt -2.590564 -1.5806484
vt -2.951272 -1.2340014
vt -3.29738 -1.5941476
vt -2.9366412 -1.9407938
vt 0.70123893 0.6924768
vt 0.6855998 0.6924768
vt 0.68559974 0.7393541
vt 0.7012388 0.7393541
vt -0.07044197 -1.0351562
vt -0.05483731 -1.0351562
vt -0.05483716 -0.98828125
vt -0.07044191 -0.98828125

# normals
vn -0.7210226357866818 0 -0.6929115085515797
vn -0.6929039769348206 7.232318969060118e-07 0.7210298736858177
vn -0 -1 -0
vn 0 1 0
vn 0.6929688171048292 0 -0.7209675571898737
vn 0.7210337382021634 0 0.6928999555305327
vn -0.7210210418925411 0 -0.6929131671055144
vn -0.6929093890385761 -7.821976258416194e-07 0.7210246726579994
vn 0.6928861937686596 1.503477756881877e-06 -0.7210469627441191
vn 0.7210264132697517 -4.2062570219567123e-07 0.6929075777960436
vn -0.7210194637698032 -4.739065289442456e-07 -0.6929148092405596
vn -0.6928834658375158 -5.064991647581707e-07 0.7210495841263175
vn 0.6929126817059192 -2.1267907438445445e-06 -0.7210215083661431
vn 0.7210493297918706 1.421568424380453e-06 0.6928837305094363
vn -0.7210195094227251 -5.617225474127291e-07 -0.6929147617358844
vn -0.692913807266916 -2.174990118817992e-07 0.7210204266862487
vn 0.692943087813316 -2.481488609455719e-06 -0.7209922863981204
vn -0.7210508755554876 1.1486817307274791e-07 -0.6928821219086633
vn -0.6928439328302525 0 0.7210875707847892
vn 0.6928439328302562 0 -0.7210875707847858
vn -0.721018338204945 1.691176865229826e-06 -0.692915980454571
vn 0.6929292690518469 3.1197642391543194e-06 -0.7210055673027359
vn 0.7210386597935963 -1.464692753394316e-07 0.6928948340715445
vn -0.7210924635024373 0 -0.6928388406260045
vn -0.6929688171048304 0 0.7209675571898726
vn 0.6928439328303093 0 -0.7210875707847347
vn 0.7210221960526202 1.0365314085684222e-06 0.6929119661244006
vn -0.7210290389934507 -1.199951928517141e-07 -0.6929048455077842
vn -0.69290215487158 -5.6346204188738e-07 0.7210316246698221
vn 0.6929082564171664 0 -0.7210257611132368
vn -0.6929082564171664 0 0.7210257611132368
vn -0.7210337382021633 0 -0.6928999555305327
vn -0.6929131671055171 0 0.7210210418925385
vn 0.6929131671055171 0 -0.7210210418925385
vn 0.7210337382021633 0 0.6928999555305327
vn -0.6929001809239622 0 0.7210335216032195
vn 0.6929001809239622 0 -0.7210335216032195
vn 0.7210210418925411 0 0.6929131671055144
vn -0.7210045606858991 3.486639150877255e-08 -0.6929303164605604
vn -0.6929126817059191 2.1267907438445453e-06 0.7210215083661431
vn 0.6929442133827546 -1.3738979316890364e-07 -0.720991204619957
vn 0.6929138072669159 2.174990118817991e-07 -0.7210204266862487
vn 0.7210194637698041 4.739065286944462e-07 0.6929148092405586
vn -0.7210194637698035 -4.739065285556685e-07 -0.6929148092405591
vn -0.6928822742447494 1.7769998441918387e-06 0.7210507291683895

o entity0_brush0
usemtl toxic_facility_wood/wood088
f  1/1/1  2/2/1  3/3/1  4/4/1
usemtl toxic_facility_wood/wood088
f  5/5/2  3/6/2  2/7/2  6/8/2
usemtl common/WTF
f  6/9/3  2/10/3  1/11/3  7/12/3
usemtl toxic_facility_wood/wood088
f  8/13/4  4/14/4  3/15/4  5/16/4
usemtl toxic_facility_wood/wood088
f  7/17/5  1/18/5  4/19/5  8/20/5
usemtl toxic_facility_wood/wood088
f  8/21/6  5/22/6  6/23/6  7/24/6

o entity0_brush1
usemtl toxic_facility_wood/floor_c10
f  9/25/7  10/26/7  11/27/7  12/28/7
usemtl toxic_facility_wood/floor_c10
f  13/29/8  11/30/8  10/31/8  14/32/8
usemtl common/WTF
f  14/33/3  10/34/3  9/35/3  15/36/3
usemtl toxic_facility_wood/floor_c10
f  16/37/4  12/38/4  11/39/4  13/40/4
usemtl toxic_facility_wood/floor_c10
f  15/41/9  9/42/9  12/43/9  16/44/9
usemtl common/WTF
f  16/45/10  13/46/10  14/47/10  15/48/10

o entity0_brush2
usemtl toxic_facility_wood/wood088
f  17/49/11  18/50/11  19/51/11  20/52/11
usemtl toxic_facility_wood/wood088
f  21/53/12  19/54/12  18/55/12  22/56/12
usemtl common/WTF
f  22/57/3  18/58/3  17/59/3  23/60/3
usemtl common/WTF
f  24/61/4  20/62/4  19/63/4  21/64/4
usemtl toxic_facility_wood/wood088
f  23/65/13  17/66/13  20/67/13  24/68/13
usemtl toxic_facility_wood/wood088
f  24/69/14  21/70/14  22/71/14  23/72/14

o entity0_brush3
usemtl toxic_facility_wood/wood088
f  25/73/15  26/74/15  27/75/15  28/76/15
usemtl toxic_facility_wood/wood088
f  29/77/16  27/78/16  26/79/16  30/80/16
usemtl common/WTF
f  30/81/3  26/82/3  25/83/3  31/84/3
usemtl common/WTF
f  32/85/4  28/86/4  27/87/4  29/88/4
usemtl toxic_facility_wood/wood088
f  31/89/17  25/90/17  28/91/17  32/92/17
usemtl toxic_facility_wood/wood088
f  32/93/14  29/94/14  30/95/14  31/96/14

o entity0_brush4
usemtl toxic_facility_wood/wood088
f  33/97/18  34/98/18  35/99/18  36/100/18
usemtl toxic_facility_wood/wood088
f  37/101/19  35/102/19  34/103/19  38/104/19
usemtl common/WTF
f  38/105/3  34/106/3  33/107/3  39/108/3
usemtl common/WTF
f  40/109/4  36/110/4  35/111/4  37/112/4
usemtl toxic_facility_wood/wood088
f  39/113/20  33/114/20  36/115/20  40/116/20
usemtl toxic_facility_wood/wood088
f  40/117/14  37/118/14  38/119/14  39/120/14

o entity0_brush5
usemtl toxic_facility_wood/wood088
f  41/121/21  42/122/21  43/123/21  44/124/21
usemtl toxic_facility_wood/wood088
f  45/125/12  43/126/12  42/127/12  46/128/12
usemtl common/WTF
f  46/129/3  42/130/3  41/131/3  47/132/3
usemtl common/WTF
f  48/133/4  44/134/4  43/135/4  45/136/4
usemtl toxic_facility_wood/wood088
f  47/137/22  41/138/22  44/139/22  48/140/22
usemtl toxic_facility_wood/wood088
f  48/141/23  45/142/23  46/143/23  47/144/23

o entity0_brush6
usemtl toxic_facility_wood/wood088
f  49/145/24  50/146/24  51/147/24  52/148/24
usemtl toxic_facility_wood/wood088
f  53/149/25  51/150/25  50/151/25  54/152/25
usemtl common/WTF
f  54/153/3  50/154/3  49/155/3  55/156/3
usemtl common/WTF
f  56/157/4  52/155/4  51/154/4  53/158/4
usemtl toxic_facility_wood/wood088
f  55/159/26  49/160/26  52/161/26  56/162/26
usemtl toxic_facility_wood/wood088
f  56/163/27  53/164/27  54/165/27  55/166/27

o entity0_brush7
usemtl toxic_facility_wood/wood088
f  57/167/28  58/168/28  59/169/28  60/170/28
usemtl toxic_facility_wood/wood088
f  61/171/29  59/172/29  58/173/29  62/174/29
usemtl toxic_facility_wood/wood088
f  62/175/3  58/176/3  57/177/3  63/178/3
usemtl toxic_facility_wood/wood088
f  64/179/4  60/180/4  59/181/4  61/182/4
usemtl toxic_facility_wood/wood088
f  63/183/30  57/184/30  60/185/30  64/186/30
usemtl common/WTF
f  64/187/10  61/188/10  62/189/10  63/190/10

o entity0_brush8
usemtl toxic_facility_wood/wood088
f  65/191/28  66/192/28  67/193/28  68/194/28
usemtl toxic_facility_wood/wood088
f  69/195/31  67/196/31  66/197/31  70/198/31
usemtl toxic_facility_wood/wood088
f  70/199/3  66/200/3  65/201/3  71/202/3
usemtl toxic_facility_wood/wood088
f  72/203/4  68/204/4  67/205/4  69/206/4
usemtl toxic_facility_wood/wood088
f  71/207/30  65/208/30  68/209/30  72/210/30
usemtl common/WTF
f  72/211/10  69/212/10  70/213/10  71/214/10

o entity0_brush9
usemtl toxic_facility_wood/wood088
f  73/215/32  74/216/32  75/217/32  76/218/32
usemtl toxic_facility_wood/wood088
f  77/219/33  75/220/33  74/221/33  78/222/33
usemtl toxic_facility_wood/wood088
f  78/223/3  74/224/3  73/225/3  79/226/3
usemtl toxic_facility_wood/wood088
f  80/227/4  76/228/4  75/229/4  77/230/4
usemtl toxic_facility_wood/wood088
f  79/231/34  73/232/34  76/233/34  80/234/34
usemtl toxic_facility_wood/wood088
f  80/235/35  77/236/35  78/237/35  79/238/35

o entity0_brush10
usemtl toxic_facility_wood/floor_c10
f  81/239/7  82/240/7  83/241/7  84/242/7
usemtl toxic_facility_wood/floor_c10
f  85/243/36  83/244/36  82/245/36  86/246/36
usemtl common/WTF
f  86/247/3  82/248/3  81/249/3  87/250/3
usemtl toxic_facility_wood/floor_c10
f  88/251/4  84/252/4  83/253/4  85/254/4
usemtl toxic_facility_wood/floor_c10
f  87/255/37  81/256/37  84/257/37  88/258/37
usemtl common/WTF
f  88/259/38  85/260/38  86/261/38  87/262/38

o entity0_brush11
usemtl toxic_facility_wood/wood088
f  89/263/39  90/264/39  91/265/39  92/266/39
usemtl toxic_facility_wood/wood088
f  93/267/40  91/268/40  90/269/40  94/270/40
usemtl common/WTF
f  94/271/3  90/272/3  89/273/3  95/274/3
usemtl common/WTF
f  96/275/4  92/276/4  91/277/4  93/278/4
usemtl toxic_facility_wood/wood088
f  95/279/41  89/280/41  92/281/41  96/282/41
usemtl toxic_facility_wood/wood088
f  96/283/23  93/284/23  94/285/23  95/286/23

o entity0_brush12
usemtl toxic_facility_wood/wood088
f  97/287/15  98/288/15  99/289/15  100/290/15
usemtl toxic_facility_wood/wood088
f  101/291/40  99/292/40  98/293/40  102/294/40
usemtl common/WTF
f  102/295/3  98/296/3  97/297/3  103/298/3
usemtl common/WTF
f  104/299/4  100/300/4  99/301/4  101/302/4
usemtl toxic_facility_wood/wood088
f  103/303/42  97/304/42  100/305/42  104/306/42
usemtl toxic_facility_wood/wood088
f  104/307/43  101/308/43  102/309/43  103/310/43

o entity0_brush13
usemtl toxic_facility_wood/wood088
f  105/311/44  106/312/44  107/313/44  108/314/44
usemtl toxic_facility_wood/wood088
f  109/315/45  107/316/45  106/317/45  110/318/45
usemtl common/WTF
f  110/319/3  106/320/3  105/321/3  111/322/3
usemtl common/WTF
f  112/323/4  108/324/4  107/325/4  109/326/4
usemtl toxic_facility_wood/wood088
f  111/327/42  105/328/42  108/329/42  112/330/42
usemtl toxic_facility_wood/wood088
f  112/331/14  109/332/14  110/333/14  111/334/14

