mtllib desk.mtl
# vertices
v -60 40 -26
v -60 40 30
v -60 42 30
v -60 42 -26
v 60 42 30
v 60 40 30
v 60 40 -26
v 60 42 -26
v -64 42 -30
v -64 42 34
v -63 43 33
v -63 43 -29
v 63 43 33
v 64 42 34
v 64 42 -30
v 63 43 -29
v 49 0 22
v 49 0 26
v 47 40 28
v 47 40 20
v 55 40 28
v 53 0 26
v 53 0 22
v 55 40 20
v 49 0 -19
v 49 0 -15
v 47 40 -13
v 47 40 -21
v 55 40 -13
v 53 0 -15
v 53 0 -19
v 55 40 -21
v -56 0 22
v -56 0 26
v -58 40 28
v -58 40 20
v -50 40 28
v -52 0 26
v -52 0 22
v -50 40 20
v -56 0 -19
v -56 0 -15
v -58 40 -13
v -58 40 -21
v -50 40 -13
v -52 0 -15
v -52 0 -19
v -50 40 -21

# texture coordinates
vt 0.9023967 0.33975697
vt 0.6836467 0.33975697
vt 0.6836467 0.34756935
vt 0.9023967 0.34756935
vt 0.23059082 0.3478294
vt -0.23815918 0.3478294
vt -0.23815918 0.34001666
vt 0.23059082 0.34001666
vt 0.23047349 0.6835966
vt -0.23827678 0.6835966
vt -0.23827678 0.9023466
vt 0.23047349 0.9023466
vt 0.23046489 0.9023466
vt -0.23828499 0.9023466
vt -0.23828499 0.6835966
vt 0.23046489 0.6835966
vt 0.2311735 0.3395807
vt -0.23760702 0.3395807
vt -0.23760702 0.34739345
vt 0.2311735 0.34739345
vt 0.90239346 0.3475865
vt 0.68363583 0.3475865
vt 0.68363583 0.33977386
vt 0.90239346 0.33977386
vt -0.2540846 0.9179764
vt -0.2540846 0.6679764
vt -0.2501784 0.6718826
vt -0.2501784 0.9140701
vt 0.24249732 0.671909
vt -0.2497052 0.671909
vt -0.25361156 0.66800296
vt 0.2464037 0.66800296
vt 0.24608782 0.66797185
vt -0.25391194 0.66797185
vt -0.25391194 0.9179723
vt 0.24608782 0.9179723
vt 0.24218364 0.91406536
vt -0.25000376 0.91406536
vt -0.25000376 0.67187786
vt 0.24218364 0.67187786
vt 0.24630165 0.9179512
vt -0.2537136 0.9179512
vt -0.24980724 0.91404504
vt 0.24239528 0.91404504
vt 0.24205402 0.9143003
vt 0.24205402 0.6721128
vt 0.24596024 0.6682066
vt 0.24596024 0.9182066
vt 0.7148306 0.18359613
vt 0.69920576 0.18359613
vt 0.6913934 0.3398471
vt 0.72264296 0.3398471
vt 0.21089649 0.3400315
vt 0.17964649 0.3400315
vt 0.18745899 0.18378365
vt 0.20308399 0.18378365
vt 6.625 -3.25
vt 6.125 -3.25
vt 6.125 -2.75
vt 6.625 -2.75
vt 6.875 -2.5
vt 5.875 -2.5
vt 5.875 -3.5
vt 6.875 -3.5
vt 0.20315075 0.18370152
vt 0.18752575 0.18370152
vt 0.17971325 0.33995533
vt 0.21096325 0.33995533
vt 0.72267807 0.33985615
vt 0.69142836 0.33985615
vt 0.6992408 0.18360615
vt 0.7148656 0.18360615
vt 0.87500924 0.18359041
vt 0.8593844 0.18359041
vt 0.85157204 0.33983994
vt 0.8828216 0.33983994
vt 6.625 1.875
vt 6.125 1.875
vt 6.125 2.375
vt 6.625 2.375
vt 6.875 2.625
vt 5.875 2.625
vt 5.875 1.625
vt 6.875 1.625
vt 0.88280827 0.33983707
vt 0.85155857 0.33983707
vt 0.859371 0.18358612
vt 0.8749959 0.18358612
vt 0.71485907 0.18359613
vt 0.699234 0.18359613
vt 0.69142145 0.3398471
vt 0.7226716 0.3398471
vt -0.19922352 0.3400237
vt -0.23047352 0.3400237
vt -0.22266102 0.18377474
vt -0.20703602 0.18377474
vt -6.5 -3.25
vt -7 -3.25
vt -7 -2.75
vt -6.5 -2.75
vt -6.25 -2.5
vt -7.25 -2.5
vt -7.25 -3.5
vt -6.25 -3.5
vt -0.20692062 0.18371868
vt -0.22254562 0.18371868
vt -0.23035812 0.33996868
vt -0.19910812 0.33996868
vt 0.7226476 0.33985615
vt 0.6913982 0.33985615
vt 0.6992105 0.18360615
vt 0.7148353 0.18360615
vt 0.87501806 0.18359041
vt 0.85939294 0.18359041
vt 0.8515804 0.33983994
vt 0.88283056 0.33983994
vt -6.5 1.875
vt -7 1.875
vt -7 2.375
vt -6.5 2.375
vt -6.25 2.625
vt -7.25 2.625
vt -7.25 1.625
vt -6.25 1.625
vt 0.88280267 0.33983707
vt 0.8515532 0.33983707
vt 0.8593656 0.18358612
vt 0.8749903 0.18358612

# normals
vn -1 0 -0
vn 0 -0 1
vn 0 -1 -0
vn 0 1 -0
vn 0 0 -1
vn 1 0 -0
vn -0.7071067811865475 0.7071067811865475 -0
vn 0 0.7071067811865475 0.7071067811865475
vn -0 0.7071067811865475 -0.7071067811865475
vn 0.7071067811865475 0.7071067811865475 -0
vn -0.9987523388778445 -0.04993761694389223 -0
vn -0 -0.04993761694389223 0.9987523388778445
vn 0 -0.04993761694389223 -0.9987523388778445
vn 0.9987523388778445 -0.04993761694389223 -0

o entity0_brush0
usemtl toxic_facility_wood/wood088
f  1/1/1  2/2/1  3/3/1  4/4/1
usemtl toxic_facility_wood/wood088
f  5/5/2  3/6/2  2/7/2  6/8/2
usemtl toxic_facility_wood/wood088
f  6/9/3  2/10/3  1/11/3  7/12/3
usemtl toxic_facility_wood/wood088
f  8/13/4  4/14/4  3/15/4  5/16/4
usemtl toxic_facility_wood/wood088
f  7/17/5  1/18/5  4/19/5  8/20/5
usemtl toxic_facility_wood/wood088
f  8/21/6  5/22/6  6/23/6  7/24/6

o entity0_brush1
usemtl toxic_facility_wood/wood088
f  9/25/7  10/26/7  11/27/7  12/28/7
usemtl toxic_facility_wood/wood088
f  13/29/8  11/30/8  10/31/8  14/32/8
usemtl toxic_facility_wood/wood088
f  14/33/3  10/34/3  9/35/3  15/36/3
usemtl toxic_facility_wood/wood088
f  16/37/4  12/38/4  11/39/4  13/40/4
usemtl toxic_facility_wood/wood088
f  15/41/9  9/42/9  12/43/9  16/44/9
usemtl toxic_facility_wood/wood088
f  16/45/10  13/46/10  14/47/10  15/48/10

o entity0_brush2
usemtl toxic_facility_wood/wood088
f  17/49/11  18/50/11  19/51/11  20/52/11
usemtl toxic_facility_wood/wood088
f  21/53/12  19/54/12  18/55/12  22/56/12
usemtl common/WTF
f  22/57/3  18/58/3  17/59/3  23/60/3
usemtl common/caulk
f  24/61/4  20/62/4  19/63/4  21/64/4
usemtl toxic_facility_wood/wood088
f  23/65/13  17/66/13  20/67/13  24/68/13
usemtl toxic_facility_wood/wood088
f  24/69/14  21/70/14  22/71/14  23/72/14

o entity0_brush3
usemtl toxic_facility_wood/wood088
f  25/73/11  26/74/11  27/75/11  28/76/11
usemtl toxic_facility_wood/wood088
f  29/53/12  27/54/12  26/55/12  30/56/12
usemtl common/WTF
f  30/77/3  26/78/3  25/79/3  31/80/3
usemtl common/caulk
f  32/81/4  28/82/4  27/83/4  29/84/4
usemtl toxic_facility_wood/wood088
f  31/65/13  25/66/13  28/67/13  32/68/13
usemtl toxic_facility_wood/wood088
f  32/85/14  29/86/14  30/87/14  31/88/14

o entity0_brush4
usemtl toxic_facility_wood/wood088
f  33/89/11  34/90/11  35/91/11  36/92/11
usemtl toxic_facility_wood/wood088
f  37/93/12  35/94/12  34/95/12  38/96/12
usemtl common/WTF
f  38/97/3  34/98/3  33/99/3  39/100/3
usemtl common/caulk
f  40/101/4  36/102/4  35/103/4  37/104/4
usemtl toxic_facility_wood/wood088
f  39/105/13  33/106/13  36/107/13  40/108/13
usemtl toxic_facility_wood/wood088
f  40/109/14  37/110/14  38/111/14  39/112/14

o entity0_brush5
usemtl toxic_facility_wood/wood088
f  41/113/11  42/114/11  43/115/11  44/116/11
usemtl toxic_facility_wood/wood088
f  45/93/12  43/94/12  42/95/12  46/96/12
usemtl common/WTF
f  46/117/3  42/118/3  41/119/3  47/120/3
usemtl common/caulk
f  48/121/4  44/122/4  43/123/4  45/124/4
usemtl toxic_facility_wood/wood088
f  47/105/13  41/106/13  44/107/13  48/108/13
usemtl toxic_facility_wood/wood088
f  48/125/14  45/126/14  46/127/14  47/128/14

