mtllib teleporter-tunnel.mtl
# vertices
v -128 -128 496
v -128 -128 512
v -128 128 512
v -128 128 496
v 136 128 512
v 136 -128 512
v 136 -128 496
v 136 128 496
v -136 -136 -512
v -136 -136 -496
v -136 120 -496
v -136 120 -512
v 128 120 -496
v 128 -136 -496
v 128 -136 -512
v 128 120 -512
v -144 -136 -512
v -144 -136 512
v -144 136 512
v -144 136 -512
v -136 136 512
v -136 -136 512
v -136 -136 -512
v -136 136 -512
v 136 -136 -512
v 136 -136 512
v 136 136 512
v 136 136 -512
v 144 136 512
v 144 -136 512
v 144 -136 -512
v 144 136 -512
v -144 136 -512
v -144 136 512
v -144 144 512
v -144 144 -512
v 144 144 512
v 144 136 512
v 144 136 -512
v 144 144 -512
v -144 -144 -512
v -144 -144 512
v -144 -136 512
v -144 -136 -512
v 144 -136 512
v 144 -144 512
v 144 -144 -512
v 144 -136 -512

# texture coordinates
vt -62 -16
vt -64 -16
vt -64 16
vt -62 16
vt 17 16
vt -16 16
vt -16 -16
vt 17 -16
vt 17 -64
vt -16 -64
vt -16 -62
vt 17 -62
vt 0.25 -0.25
vt -8 -0.25
vt -8 7.75
vt 0.25 7.75
vt 64 -17
vt 62 -17
vt 62 15
vt 64 15
vt 3.5 4
vt -4.75 4
vt -4.75 -4
vt 3.5 -4
vt 16 62
vt -17 62
vt -17 64
vt 16 64
vt 16 -17
vt -17 -17
vt -17 15
vt 16 15
vt 32 -8.5
vt -32 -8.5
vt -32 8.5
vt 32 8.5
vt -8.5 8.5
vt -9 8.5
vt -9 -8.5
vt -8.5 -8.5
vt -8.5 -32
vt -9 -32
vt -9 32
vt -8.5 32
vt 8.5 8.5
vt 8 8.5
vt 8 -8.5
vt 8.5 -8.5
vt 8.5 -32
vt 8 -32
vt 8 32
vt 8.5 32
vt -9 9
vt -9 -9
vt -8.5 -9
vt -8.5 9
vt -32 9
vt -32 -9
vt 32 -9
vt 32 9
vt 9.5 32
vt 9.5 -32
vt 9 -32
vt 9 32
vt 9 9
vt 9 -9
vt 9.5 -9
vt 9.5 9

# normals
vn -1 0 0
vn 0 0 1
vn 0 -1 -0
vn -0 1 -0
vn 0 -0 -1
vn 1 0 0

o entity0_brush0
usemtl common/caulk
f  1/1/1  2/2/1  3/3/1  4/4/1
usemtl common/caulk
f  5/5/2  3/6/2  2/7/2  6/8/2
usemtl common/caulk
f  6/9/3  2/10/3  1/11/3  7/12/3
usemtl common/caulk
f  8/12/4  4/11/4  3/10/4  5/9/4
usemtl common/caulk
f  7/13/5  1/14/5  4/15/5  8/16/5
usemtl common/caulk
f  8/4/6  5/3/6  6/2/6  7/1/6

o entity0_brush1
usemtl common/caulk
f  9/17/1  10/18/1  11/19/1  12/20/1
usemtl common/caulk
f  13/21/2  11/22/2  10/23/2  14/24/2
usemtl common/caulk
f  14/25/3  10/26/3  9/27/3  15/28/3
usemtl common/caulk
f  16/28/4  12/27/4  11/26/4  13/25/4
usemtl common/caulk
f  15/29/5  9/30/5  12/31/5  16/32/5
usemtl common/caulk
f  16/20/6  13/19/6  14/18/6  15/17/6

o entity0_brush2
usemtl common/caulk
f  17/33/1  18/34/1  19/35/1  20/36/1
usemtl common/caulk
f  21/37/2  19/38/2  18/39/2  22/40/2
usemtl common/caulk
f  22/41/3  18/42/3  17/43/3  23/44/3
usemtl common/caulk
f  24/44/4  20/43/4  19/42/4  21/41/4
usemtl common/caulk
f  23/40/5  17/39/5  20/38/5  24/37/5
usemtl common/caulk
f  24/36/6  21/35/6  22/34/6  23/33/6

o entity0_brush3
usemtl common/caulk
f  25/33/1  26/34/1  27/35/1  28/36/1
usemtl common/caulk
f  29/45/2  27/46/2  26/47/2  30/48/2
usemtl common/caulk
f  30/49/3  26/50/3  25/51/3  31/52/3
usemtl common/caulk
f  32/52/4  28/51/4  27/50/4  29/49/4
usemtl common/caulk
f  31/48/5  25/47/5  28/46/5  32/45/5
usemtl common/caulk
f  32/36/6  29/35/6  30/34/6  31/33/6

o entity0_brush4
usemtl common/caulk
f  33/44/1  34/41/1  35/42/1  36/43/1
usemtl common/caulk
f  37/53/2  35/54/2  34/55/2  38/56/2
usemtl common/caulk
f  38/57/3  34/58/3  33/59/3  39/60/3
usemtl common/caulk
f  40/60/4  36/59/4  35/58/4  37/57/4
usemtl common/caulk
f  39/56/5  33/55/5  36/54/5  40/53/5
usemtl common/caulk
f  40/43/6  37/42/6  38/41/6  39/44/6

o entity0_brush5
usemtl common/caulk
f  41/61/1  42/62/1  43/63/1  44/64/1
usemtl common/caulk
f  45/65/2  43/66/2  42/67/2  46/68/2
usemtl common/caulk
f  46/57/3  42/58/3  41/59/3  47/60/3
usemtl common/caulk
f  48/60/4  44/59/4  43/58/4  45/57/4
usemtl common/caulk
f  47/68/5  41/67/5  44/66/5  48/65/5
usemtl common/caulk
f  48/64/6  45/63/6  46/62/6  47/61/6

